<?xml version="1.0" standalone="no"?>
<!DOCTYPE svg PUBLIC "-//W3C//DTD SVG 20010904//EN"
 "http://www.w3.org/TR/2001/REC-SVG-20010904/DTD/svg10.dtd">
<svg version="1.0" xmlns="http://www.w3.org/2000/svg"
 width="318.000000pt" height="318.000000pt" viewBox="0 0 318.000000 318.000000"
 preserveAspectRatio="xMidYMid meet">

<g transform="translate(0.000000,318.000000) scale(0.100000,-0.100000)"
fill="#E57C23" stroke="none">
<path d="M1695 2981 c-8 -15 3 -31 21 -31 9 0 14 7 12 17 -4 20 -24 28 -33 14z"/>
<path d="M1212 2923 c2 -10 10 -18 18 -18 8 0 16 8 18 18 2 12 -3 17 -18 17
-15 0 -20 -5 -18 -17z"/>
<path d="M1155 2921 c-8 -15 3 -31 21 -31 9 0 14 7 12 17 -4 20 -24 28 -33 14z"/>
<path d="M1551 2917 c16 -12 35 -107 21 -107 -4 0 -32 25 -62 55 -48 49 -59
55 -95 54 -39 0 -40 0 -17 -16 19 -14 22 -24 22 -89 0 -59 -3 -75 -17 -83 -27
-15 -9 -23 33 -15 31 6 35 9 22 18 -10 7 -18 36 -23 76 l-7 65 79 -77 c43 -43
81 -78 84 -78 4 0 4 41 1 92 -4 80 -3 93 13 105 17 12 14 13 -26 13 -37 -1
-41 -3 -28 -13z"/>
<path d="M1650 2921 c0 -6 7 -11 16 -11 14 0 15 -11 9 -82 -5 -58 -12 -87 -23
-95 -13 -11 -9 -13 25 -13 23 0 48 -3 57 -6 9 -3 16 -1 16 5 0 6 -7 11 -16 11
-15 0 -16 10 -11 83 5 60 11 85 24 95 15 11 14 12 -9 12 -14 0 -40 3 -57 6
-20 4 -31 3 -31 -5z"/>
<path d="M1800 2909 c0 -4 4 -10 9 -13 5 -4 14 -39 21 -79 18 -117 21 -127 34
-127 7 0 39 36 70 80 32 44 64 80 72 80 27 0 14 18 -17 24 -47 9 -50 8 -38
-13 10 -15 6 -26 -21 -66 -37 -54 -42 -51 -53 38 -5 38 -4 47 8 47 34 0 11 17
-35 26 -27 6 -50 7 -50 3z"/>
<path d="M1288 2897 c-21 -5 -38 -13 -38 -19 0 -5 4 -7 9 -4 14 9 28 -14 46
-76 21 -72 10 -98 -40 -98 -40 0 -41 2 -65 85 -17 60 -17 65 -2 75 23 13 1 12
-53 -2 -44 -12 -62 -27 -29 -24 13 1 23 -18 40 -73 12 -41 29 -78 36 -82 25
-16 85 -10 112 12 30 24 32 49 12 127 -13 46 -12 54 1 68 21 20 15 22 -29 11z"/>
<path d="M2060 2841 c0 -4 5 -12 10 -17 17 -17 -47 -152 -74 -156 -15 -3 5
-16 68 -46 49 -23 90 -41 91 -40 10 12 34 68 30 68 -3 0 -17 -7 -30 -16 -25
-16 -79 -12 -90 6 -9 14 24 72 38 67 7 -2 13 -13 15 -25 5 -32 15 -27 34 18
18 43 17 45 -14 29 -31 -17 -43 3 -24 39 12 23 21 29 36 25 27 -7 50 -41 50
-73 l1 -25 14 26 c24 45 22 49 -67 89 -49 21 -88 36 -88 31z"/>
<path d="M866 2721 c-3 -4 1 -48 10 -96 8 -49 13 -99 9 -112 -7 -28 -2 -28 36
-6 30 18 40 40 14 29 -8 -3 -19 3 -25 13 -8 16 -4 23 22 39 24 16 37 18 51 11
10 -6 16 -17 13 -25 -7 -19 1 -18 40 7 36 22 44 39 18 39 -9 0 -52 25 -96 55
-87 60 -84 59 -92 46z m60 -80 l25 -19 -23 -16 c-25 -18 -38 -7 -38 32 0 27 5
27 36 3z"/>
<path d="M2304 2715 c10 -28 -81 -157 -106 -149 -28 9 -22 0 26 -34 47 -34 66
-41 46 -17 -10 12 -8 21 10 50 21 34 23 35 40 20 17 -16 17 -35 0 -60 -17 -24
-18 -45 -4 -60 18 -17 60 -20 70 -4 4 8 -1 9 -16 4 -20 -6 -21 -5 -14 17 5 12
8 36 9 51 0 23 4 27 19 23 30 -8 56 12 56 43 0 30 -18 50 -94 101 -38 26 -48
29 -42 15z m79 -59 c34 -26 8 -80 -34 -69 -29 8 -33 27 -14 57 20 30 23 30 48
12z"/>
<path d="M1495 2604 c-151 -21 -243 -49 -360 -107 -141 -70 -282 -190 -377
-322 -73 -102 -140 -260 -169 -400 -16 -77 -16 -293 0 -370 88 -420 396 -728
816 -816 77 -16 293 -16 370 0 324 68 582 265 727 556 73 146 102 273 102 445
0 69 -6 152 -13 185 -86 413 -392 725 -795 811 -71 15 -248 26 -301 18z m95
-109 c6 -8 9 -23 5 -34 -9 -29 11 -59 42 -63 39 -4 42 -28 4 -28 -34 0 -37 -9
-25 -82 6 -31 11 -38 30 -38 26 0 47 -30 38 -54 -7 -18 -39 -30 -54 -21 -11 7
-12 -11 -1 -38 9 -25 141 -36 141 -12 0 9 -6 18 -14 21 -24 9 -41 61 -26 79 7
8 19 15 27 15 18 0 13 34 -5 36 -6 1 -14 2 -17 3 -3 0 1 16 9 35 12 30 12 35
0 40 -23 9 -16 23 15 29 22 5 28 11 25 24 -5 23 4 35 40 51 37 17 47 6 49 -52
1 -31 6 -46 15 -46 22 0 7 -24 -19 -30 -21 -6 -24 -11 -21 -44 2 -20 12 -46
22 -56 34 -34 20 -80 -23 -80 -14 0 -18 -6 -15 -31 3 -27 9 -34 53 -50 60 -23
65 -23 65 -5 0 8 -9 18 -20 21 -31 10 -27 63 5 75 14 5 31 7 39 4 9 -4 16 6
21 33 7 38 48 93 71 93 30 0 26 -143 -5 -155 -14 -6 -13 -8 5 -15 51 -20 27
-87 -27 -76 -25 5 -39 -7 -39 -33 0 -15 89 -71 95 -61 4 6 0 19 -9 29 -9 10
-16 24 -16 32 0 35 55 54 66 24 8 -19 23 -19 30 -1 3 7 28 37 56 66 43 45 52
50 64 38 12 -12 10 -22 -17 -73 -18 -33 -39 -66 -47 -72 -13 -11 -13 -17 -3
-37 19 -35 11 -60 -22 -64 -22 -3 -30 1 -34 17 -7 28 -23 16 -23 -17 1 -16 14
-43 33 -64 32 -37 32 -37 66 -22 26 11 32 17 23 26 -30 30 3 76 40 57 10 -5
18 -19 18 -30 0 -16 3 -18 19 -10 10 6 21 8 23 5 3 -2 18 2 34 11 16 8 42 15
58 15 l30 0 -30 -31 c-16 -18 -48 -40 -72 -51 -41 -18 -42 -21 -28 -37 21 -24
20 -37 -5 -55 -28 -19 -45 -11 -58 24 -9 28 -11 29 -41 18 -26 -9 -30 -14 -25
-32 4 -11 11 -41 17 -66 6 -25 14 -50 19 -56 5 -6 2 -60 -6 -125 -10 -87 -11
-115 -2 -121 19 -12 25 -9 29 15 2 14 11 23 27 25 33 5 46 -11 31 -38 -11 -21
-10 -22 20 -15 17 4 43 2 58 -3 15 -6 35 -13 46 -16 17 -6 17 -8 -5 -25 -32
-24 -85 -34 -109 -19 -24 16 -35 5 -21 -20 43 -81 -46 -259 -156 -313 -43 -22
-62 -24 -191 -25 -138 -1 -145 -2 -167 -25 -13 -13 -33 -46 -43 -74 -11 -27
-22 -49 -26 -47 -3 1 -72 2 -154 2 l-147 0 -26 59 c-38 85 -57 95 -209 102
-223 11 -293 58 -344 228 -18 62 -21 127 -6 136 25 16 6 23 -28 11 -22 -8 -61
-16 -88 -18 -39 -2 -49 0 -52 14 -2 12 17 27 66 53 57 30 71 42 76 66 4 23 11
29 32 29 17 0 28 -6 31 -20 3 -11 14 -20 24 -20 17 0 19 9 19 100 0 88 -2 100
-19 110 -28 15 -51 12 -51 -5 0 -16 -27 -20 -49 -6 -9 6 -11 18 -7 38 6 25 3
31 -13 36 -19 5 -61 61 -61 82 0 6 4 16 9 24 8 12 16 12 56 -3 26 -10 49 -24
52 -32 4 -10 10 -8 23 9 15 17 22 20 36 11 32 -19 40 -41 21 -62 -17 -19 -14
-32 9 -32 7 0 18 15 24 34 6 19 24 52 39 73 15 21 26 44 23 51 -5 17 -32 15
-32 -3 0 -21 -24 -29 -49 -15 -24 12 -29 58 -7 66 22 8 7 34 -18 34 -26 0 -69
60 -79 109 -8 39 4 40 53 1 21 -16 44 -30 52 -30 7 0 22 -14 33 -32 18 -31 19
-31 28 -10 6 12 16 22 24 22 8 0 13 11 13 29 0 18 6 31 17 35 14 6 11 10 -16
27 -39 24 -68 84 -50 105 19 23 39 16 86 -31 42 -41 46 -43 67 -30 25 16 62
10 70 -12 7 -17 -10 -53 -24 -53 -6 0 -10 -7 -10 -15 0 -21 18 -19 79 11 45
21 52 28 47 47 -3 12 -6 25 -6 30 0 4 -15 6 -32 5 -30 -3 -33 0 -36 26 -3 22
3 34 20 48 20 15 21 18 4 18 -13 0 -16 4 -11 18 4 9 10 29 13 45 4 24 1 27
-19 25 -33 -4 -32 24 1 32 14 3 25 12 26 20 1 8 2 32 2 53 1 24 8 40 18 44 19
7 31 -10 39 -57 5 -28 13 -38 37 -48 34 -12 34 -35 0 -40 -25 -4 -26 -7 -11
-51 9 -26 16 -32 32 -27 54 14 64 -49 13 -85 -28 -20 -32 -28 -25 -47 7 -19
13 -22 31 -16 46 14 94 24 126 24 29 0 33 3 30 22 -2 18 -10 22 -38 23 -30 0
-35 4 -38 27 -2 20 4 32 27 49 22 16 28 26 22 37 -5 9 -7 34 -5 56 2 23 1 35
-2 29 -9 -19 -32 -16 -44 6 -14 27 -13 31 9 31 32 0 54 29 47 63 -6 28 7 57
24 57 4 0 13 -7 20 -15z"/>
<path d="M1705 1995 c33 -30 62 -54 65 -54 13 -1 70 61 65 69 -9 15 -104 40
-149 40 l-41 0 60 -55z"/>
<path d="M1448 2028 c-21 -6 -38 -13 -38 -17 0 -4 14 -17 30 -29 l30 -23 43
40 42 40 -35 0 c-19 -1 -52 -6 -72 -11z"/>
<path d="M1115 1980 c-3 -5 -14 -10 -24 -10 -14 0 -17 -6 -13 -30 3 -18 0 -30
-7 -30 -6 0 -11 -7 -11 -15 0 -8 6 -15 13 -14 18 1 90 86 82 99 -8 13 -32 13
-40 0z"/>
<path d="M1330 1969 c0 -11 7 -27 15 -35 8 -9 15 -27 15 -42 l0 -26 30 29 30
29 -32 33 c-37 38 -58 42 -58 12z"/>
<path d="M1582 1964 c2 -25 8 -29 36 -32 30 -3 32 -1 32 29 0 31 -1 31 -19 15
-18 -16 -20 -16 -36 0 -16 16 -16 15 -13 -12z"/>
<path d="M1230 1945 c-20 -22 -21 -25 -6 -31 21 -8 46 12 46 37 0 26 -12 24
-40 -6z"/>
<path d="M1530 1952 c-21 -17 -23 -22 -11 -36 12 -15 16 -15 29 -3 7 8 12 25
10 37 l-3 22 -25 -20z"/>
<path d="M1835 1930 l-29 -30 30 -31 29 -30 7 33 c4 18 10 45 14 61 9 37 -14
36 -51 -3z"/>
<path d="M1680 1935 c0 -11 9 -26 21 -33 32 -21 36 -5 6 26 -25 24 -27 25 -27
7z"/>
<path d="M1970 1928 c0 -22 17 -41 29 -34 17 11 13 24 -9 36 -15 8 -20 8 -20
-2z"/>
<path d="M1312 1894 c-11 -12 -17 -12 -28 -3 -11 9 -14 7 -14 -10 0 -17 6 -21
29 -21 18 0 31 6 35 17 9 23 -6 34 -22 17z"/>
<path d="M1902 1893 c-17 -31 -16 -57 4 -49 9 3 27 6 40 6 20 0 24 5 23 28 -1
16 -3 20 -6 10 -7 -26 -41 -23 -45 5 l-3 22 -13 -22z"/>
<path d="M1551 1874 c-27 -34 -26 -50 2 -58 50 -13 57 -9 57 39 0 38 -3 45
-19 45 -11 0 -29 -12 -40 -26z"/>
<path d="M1642 1853 c3 -48 3 -48 41 -51 31 -3 37 0 37 17 0 24 -46 81 -66 81
-12 0 -14 -11 -12 -47z"/>
<path d="M1152 1857 c-30 -31 -28 -37 11 -37 45 0 62 18 40 42 -21 23 -25 23
-51 -5z"/>
<path d="M1417 1852 c-15 -16 -24 -31 -20 -35 3 -4 26 -7 50 -7 47 0 65 19 46
49 -17 26 -47 24 -76 -7z"/>
<path d="M2011 1854 l-24 -17 24 -18 c24 -19 89 -26 89 -10 0 14 -41 61 -54
61 -6 0 -22 -7 -35 -16z"/>
<path d="M1752 1852 c-26 -17 -2 -42 42 -42 l41 0 -30 25 c-34 27 -35 28 -53
17z"/>
<path d="M1245 1819 c-26 -13 -49 -49 -38 -59 4 -4 25 -10 46 -13 l37 -6 0 45
c0 46 -7 51 -45 33z"/>
<path d="M1314 1816 c-3 -8 -4 -25 -2 -38 2 -19 10 -24 41 -26 44 -4 49 13 15
45 -35 31 -48 36 -54 19z"/>
<path d="M1895 1797 c-25 -14 -54 -48 -55 -64 0 -9 15 -13 45 -13 l45 0 0 39
c0 46 -7 54 -35 38z"/>
<path d="M1950 1765 l0 -45 40 0 c32 0 40 4 40 19 0 21 -46 71 -66 71 -10 0
-14 -14 -14 -45z"/>
<path d="M1520 1784 c0 -23 52 -83 73 -84 4 0 7 20 7 45 l0 45 -40 0 c-22 0
-40 -3 -40 -6z"/>
<path d="M1630 1740 c0 -33 3 -38 18 -33 25 9 62 44 62 60 0 9 -13 13 -40 13
-40 0 -40 0 -40 -40z"/>
<path d="M1125 1740 c16 -16 32 -30 37 -30 4 0 8 14 8 30 0 28 -3 30 -37 30
l-37 0 29 -30z"/>
<path d="M1430 1742 c0 -10 11 -29 24 -41 23 -22 25 -22 50 -6 24 16 24 18 9
41 -20 31 -83 35 -83 6z"/>
<path d="M1765 1753 c-16 -2 -37 -14 -47 -26 -15 -20 -15 -22 0 -34 25 -18 34
-16 70 16 33 31 42 52 20 50 -7 -1 -26 -4 -43 -6z"/>
<path d="M2054 1711 c-1 -56 8 -57 60 -3 34 36 27 52 -22 52 l-37 0 -1 -49z"/>
<path d="M1040 1689 c-20 -44 -26 -89 -12 -89 4 1 26 18 49 39 l42 38 -29 28
-30 28 -20 -44z"/>
<path d="M1332 1721 c-14 -9 -7 -81 8 -81 17 0 50 37 56 63 6 25 4 27 -22 27
-16 0 -35 -4 -42 -9z"/>
<path d="M1200 1710 c0 -16 61 -80 76 -80 10 0 14 13 14 45 l0 45 -45 0 c-25
0 -45 -4 -45 -10z"/>
<path d="M1850 1681 c0 -21 44 -61 66 -61 10 0 14 13 14 40 l0 40 -40 0 c-33
0 -40 -3 -40 -19z"/>
<path d="M1950 1660 c0 -49 18 -52 54 -9 35 41 33 49 -14 49 l-40 0 0 -40z"/>
<path d="M1541 1659 l-25 -20 31 -31 31 -31 3 52 c4 56 -3 61 -40 30z"/>
<path d="M1631 1653 c1 -16 4 -38 8 -51 l6 -23 30 31 30 31 -25 19 c-35 27
-50 25 -49 -7z"/>
<path d="M2121 1652 l-32 -27 46 -38 46 -39 -7 54 c-10 78 -14 83 -53 50z"/>
<path d="M1796 1651 c-16 -17 -14 -20 28 -55 24 -20 47 -36 50 -36 18 0 2 42
-28 73 -32 34 -34 35 -50 18z"/>
<path d="M1400 1650 c0 -6 -16 -18 -35 -27 -33 -16 -48 -43 -24 -43 13 0 88
52 89 61 0 4 -7 9 -15 13 -8 3 -15 1 -15 -4z"/>
<path d="M1104 1604 c-31 -28 -35 -37 -24 -44 17 -11 93 -11 129 -1 l25 7 -39
37 c-21 20 -42 37 -46 37 -4 0 -25 -16 -45 -36z"/>
<path d="M1445 1575 l-30 -24 55 0 c41 0 51 2 38 10 -10 5 -21 16 -25 24 -7
12 -14 10 -38 -10z"/>
<path d="M1699 1572 l-32 -29 68 -6 c38 -4 71 -4 74 -2 5 6 -59 64 -71 65 -4
0 -22 -13 -39 -28z"/>
<path d="M1963 1593 c-13 -2 -23 -11 -23 -19 0 -11 4 -12 19 -4 16 8 42 34 29
29 -2 -1 -13 -4 -25 -6z"/>
<path d="M2012 1562 c-18 -15 -32 -30 -32 -34 0 -10 76 -10 108 -2 l23 7 -27
28 c-15 16 -30 29 -33 29 -3 0 -21 -13 -39 -28z"/>
<path d="M1114 1456 l50 -44 42 37 c27 23 38 39 30 43 -6 4 -47 8 -91 7 l-80
0 49 -43z"/>
<path d="M1420 1450 c19 -17 37 -30 40 -30 4 0 19 14 35 30 l29 30 -70 0 -69
-1 35 -29z"/>
<path d="M1705 1450 c16 -16 32 -30 37 -30 13 0 78 44 78 53 0 4 -32 7 -72 7
l-72 0 29 -30z"/>
<path d="M1973 1472 c-9 -6 -2 -19 25 -45 l38 -37 49 45 50 44 -75 0 c-41 1
-81 -3 -87 -7z"/>
<path d="M1013 1458 c2 -7 12 -39 21 -70 9 -32 22 -58 29 -58 7 1 25 11 40 24
l28 23 -51 46 c-51 46 -77 59 -67 35z"/>
<path d="M1326 1430 c-9 -45 -8 -130 2 -130 4 0 26 18 47 40 l39 40 -40 41
-41 41 -7 -32z"/>
<path d="M1522 1417 l-32 -33 40 -39 40 -39 0 72 c0 40 -4 72 -8 72 -4 0 -22
-15 -40 -33z"/>
<path d="M1235 1410 l-29 -30 32 -33 32 -32 0 63 c0 34 -1 62 -3 62 -2 0 -16
-14 -32 -30z"/>
<path d="M1620 1385 c0 -30 2 -55 6 -55 3 0 21 11 40 24 l35 23 -36 32 c-20
17 -38 31 -40 31 -3 0 -5 -25 -5 -55z"/>
<path d="M1827 1408 c-26 -18 -46 -35 -46 -38 1 -3 23 -25 50 -49 l49 -44 0
82 c0 44 -1 81 -3 81 -1 0 -24 -15 -50 -32z"/>
<path d="M2120 1396 l-44 -46 21 -27 c11 -16 24 -28 29 -27 18 2 45 73 42 109
l-3 36 -45 -45z"/>
<path d="M1937 1373 c-3 -15 -2 -35 2 -45 7 -18 8 -18 25 1 18 19 18 22 2 46
-21 31 -22 31 -29 -2z"/>
<path d="M943 1340 c3 -11 -4 -45 -15 -75 -19 -54 -19 -57 -2 -113 32 -101 76
-130 236 -154 114 -16 128 -5 45 39 -40 21 -86 57 -113 86 -51 57 -111 159
-120 205 -4 19 -13 32 -21 32 -10 0 -14 -7 -10 -20z"/>
<path d="M1411 1310 c-19 -16 -32 -32 -30 -35 3 -3 34 -2 68 1 l62 7 -27 28
c-15 16 -30 29 -33 29 -3 -1 -21 -14 -40 -30z"/>
<path d="M1696 1309 c-31 -27 -35 -34 -22 -41 16 -9 146 -24 146 -17 0 3 -20
24 -44 48 l-43 43 -37 -33z"/>
<path d="M1125 1305 l-30 -25 68 0 69 0 -30 25 c-36 30 -39 30 -77 0z"/>
<path d="M1990 1275 l-34 -35 36 0 c19 0 50 -3 67 -6 23 -5 31 -3 31 8 0 13
-49 68 -61 68 -3 0 -20 -16 -39 -35z"/>
<path d="M2201 1253 c-51 -105 -129 -194 -204 -233 -26 -13 -27 -15 -11 -27
28 -20 128 -16 173 7 69 35 138 142 113 173 -6 7 -9 36 -8 64 2 29 -1 50 -5
47 -4 -2 -10 0 -14 6 -11 18 -21 10 -44 -37z"/>
<path d="M1110 1224 c0 -14 42 -64 54 -64 13 0 66 51 66 63 0 4 -27 7 -60 7
-33 0 -60 -3 -60 -6z"/>
<path d="M1386 1199 c34 -38 47 -39 82 -8 l32 29 -66 0 -67 0 19 -21z"/>
<path d="M1710 1165 l44 -45 38 37 c21 20 37 37 35 38 -1 1 -38 5 -82 9 l-79
6 44 -45z"/>
<path d="M1514 1162 l-41 -37 37 -44 c22 -25 43 -41 49 -37 12 8 16 156 4 156
-5 -1 -27 -18 -49 -38z"/>
<path d="M1310 1140 c0 -41 3 -50 18 -50 20 1 52 23 52 37 0 10 -52 63 -63 63
-4 0 -7 -22 -7 -50z"/>
<path d="M1970 1182 c0 -5 13 -20 28 -35 l28 -27 22 29 21 29 -22 6 c-32 8
-77 7 -77 -2z"/>
<path d="M1616 1165 c-3 -9 -6 -39 -6 -66 0 -44 2 -49 26 -55 20 -5 32 -1 52
20 l27 26 -46 46 c-38 38 -47 43 -53 29z"/>
<path d="M1228 1146 c-26 -19 -22 -36 7 -36 20 0 25 5 25 25 0 28 -7 30 -32
11z"/>
<path d="M1832 1118 c-25 -27 -29 -37 -20 -46 16 -16 47 -15 54 2 3 8 4 28 2
46 l-3 31 -33 -33z"/>
<path d="M1930 1102 c0 -46 5 -49 35 -27 19 15 19 16 -8 42 l-27 28 0 -43z"/>
<path d="M1403 1079 c-5 -5 -8 -21 -5 -35 3 -18 11 -24 31 -24 14 0 33 5 41
10 12 7 11 13 -10 34 -25 28 -40 32 -57 15z"/>
<path d="M1745 1040 c4 -6 11 -8 16 -5 14 9 11 15 -7 15 -8 0 -12 -5 -9 -10z"/>
<path d="M1602 931 c-7 -4 -24 -6 -38 -3 -30 5 -84 -16 -84 -34 0 -7 4 -24 10
-38 9 -26 11 -26 109 -26 104 0 111 3 111 49 0 41 -71 76 -108 52z"/>
<path d="M644 2539 c-57 -54 -66 -70 -36 -62 13 3 33 -14 70 -56 29 -32 52
-62 52 -64 0 -3 -10 -11 -23 -20 -20 -13 -33 -13 -97 -1 -92 16 -130 17 -130
3 0 -5 25 -47 55 -91 31 -45 53 -88 50 -96 -9 -25 16 -7 37 26 l21 33 -26 -6
c-33 -9 -41 8 -22 45 11 22 23 30 41 30 19 0 25 -4 20 -15 -10 -28 12 -15 33
19 12 18 41 52 66 75 50 46 53 51 27 44 -22 -5 -67 40 -59 61 8 20 41 20 57 0
38 -45 90 -36 90 16 0 17 -4 30 -10 30 -5 0 -7 -7 -4 -15 8 -20 -10 -19 -41 1
-14 9 -31 14 -39 11 -12 -5 -13 -2 -5 17 16 35 -4 66 -42 66 -23 0 -44 -13
-85 -51z m80 5 c20 -20 20 -33 -1 -56 -16 -18 -17 -18 -40 4 -27 26 -29 43 -5
57 23 14 28 14 46 -5z m-156 -250 c26 -7 27 -13 9 -38 -13 -18 -15 -17 -36 13
-23 32 -18 37 27 25z"/>
<path d="M2480 2510 c-26 -26 -25 -40 4 -99 26 -50 22 -71 -15 -71 -28 0 -44
30 -42 78 l2 44 -25 -23 c-28 -26 -31 -39 -9 -39 8 0 15 -7 15 -15 0 -26 47
-65 78 -65 34 0 62 27 62 59 0 13 -10 40 -21 61 -24 43 -20 70 10 70 27 0 44
-34 39 -76 -5 -40 -2 -41 29 -12 25 23 27 17 -31 81 -30 32 -68 35 -96 7z"/>
<path d="M2657 2371 c7 -26 -122 -117 -143 -100 -21 17 -17 3 12 -41 26 -39
49 -55 38 -26 -9 23 114 108 144 101 23 -6 23 -4 -8 40 -32 47 -52 59 -43 26z"/>
<path d="M2722 2374 c4 -21 22 -23 26 -1 2 10 -3 17 -13 17 -10 0 -15 -6 -13
-16z"/>
<path d="M2710 2235 l-25 -14 36 -1 c20 0 42 -7 49 -15 10 -12 1 -20 -61 -50
-80 -38 -95 -41 -102 -22 -2 6 -7 9 -11 6 -3 -3 4 -29 17 -57 13 -29 27 -49
30 -46 3 3 3 12 1 19 -6 15 141 89 157 79 15 -9 10 -30 -12 -58 -23 -30 -15
-34 21 -9 14 9 26 17 28 18 1 1 -14 38 -35 83 -38 86 -48 93 -93 67z"/>
<path d="M376 2158 c-20 -46 -21 -69 -2 -43 13 18 15 15 40 -33 29 -56 26 -59
-27 -37 -25 10 -35 20 -31 30 4 8 3 15 0 15 -10 0 -47 -92 -41 -99 3 -3 10 0
14 7 11 18 152 -36 159 -60 7 -29 18 -21 36 25 21 54 20 60 -3 45 -15 -9 -24
-8 -45 5 -32 21 -33 33 -3 41 40 11 65 7 69 -11 2 -11 12 3 26 36 19 47 20 52
4 46 -9 -4 -35 -11 -57 -16 -22 -5 -50 -11 -62 -14 -24 -6 -41 16 -53 70 l-7
30 -17 -37z"/>
<path d="M2851 2024 c-1 -18 -14 -25 -82 -44 -78 -21 -81 -21 -96 -3 -13 17
-14 16 -8 -12 3 -16 15 -61 26 -98 18 -62 23 -68 42 -63 12 3 28 6 35 6 24 0
12 16 -20 25 -22 7 -35 19 -41 38 -11 34 -4 42 41 52 24 5 32 3 32 -8 0 -8 -7
-20 -15 -27 -26 -21 -17 -29 23 -18 41 11 66 28 40 28 -17 0 -44 27 -36 36 3
3 21 7 41 11 33 5 35 3 42 -27 5 -25 2 -36 -14 -54 -29 -31 -26 -36 14 -23 19
6 35 15 34 21 -2 27 -57 179 -58 160z"/>
<path d="M296 1928 c-17 -54 -13 -71 11 -47 11 11 103 2 103 -10 0 -3 -27 -21
-60 -39 -77 -43 -90 -56 -90 -95 0 -27 1 -29 13 -13 11 16 19 16 82 5 43 -7
76 -19 86 -30 15 -16 18 -17 23 -3 3 9 6 28 6 42 -1 25 -2 26 -14 9 -12 -15
-22 -17 -63 -11 -83 12 -82 17 16 73 50 29 91 56 91 61 0 4 -37 13 -81 20 -54
9 -88 19 -101 32 -13 13 -20 15 -22 6z"/>
<path d="M2831 1753 c-12 -10 -28 -40 -35 -68 -10 -43 -16 -50 -37 -50 -20 0
-25 6 -27 33 -3 26 3 39 28 62 l32 30 -41 0 c-39 0 -53 -11 -31 -25 6 -4 6
-15 -1 -32 -19 -52 11 -103 60 -103 36 0 57 24 70 79 5 24 14 48 19 53 12 12
42 -1 43 -21 3 -33 -3 -47 -28 -69 -30 -27 -28 -31 12 -25 28 4 30 7 32 55 2
41 -2 54 -22 74 -29 29 -45 30 -74 7z"/>
<path d="M440 1651 c0 -6 -43 -30 -95 -55 -52 -24 -95 -49 -95 -54 0 -5 41
-24 91 -42 50 -18 97 -39 104 -47 21 -20 25 -16 25 27 0 22 -4 40 -10 40 -5 0
-10 -7 -10 -15 0 -8 -9 -15 -20 -15 -28 0 -40 68 -15 86 14 10 22 11 32 3 10
-9 13 -3 13 35 0 25 -4 46 -10 46 -5 0 -10 -4 -10 -9z m-50 -127 c0 -22 -3
-24 -22 -18 -49 14 -53 21 -22 37 35 18 44 14 44 -19z"/>
<path d="M2721 1569 c-1 -9 -4 -38 -7 -65 -4 -38 -3 -45 6 -31 19 30 180 22
180 -9 0 -8 5 -14 10 -14 6 0 10 15 10 33 0 17 3 42 6 55 4 13 2 22 -5 22 -6
0 -11 -7 -11 -16 0 -14 -7 -15 -37 -10 -21 3 -60 6 -86 6 -40 0 -49 4 -57 23
-6 14 -9 17 -9 6z"/>
<path d="M2954 1509 c-10 -17 13 -36 27 -22 12 12 4 33 -11 33 -5 0 -12 -5
-16 -11z"/>
<path d="M1882 467 c-43 -45 -20 -160 34 -173 55 -14 109 41 86 90 -13 29 -43
38 -76 21 -22 -12 -25 -11 -30 11 -7 26 8 64 24 64 6 0 10 -9 10 -20 0 -13 7
-20 19 -20 26 0 36 17 21 35 -19 22 -64 18 -88 -8z m82 -115 c13 -47 -8 -67
-35 -33 -29 36 -24 75 10 69 8 -2 20 -18 25 -36z"/>
<path d="M1294 465 c18 -14 18 -16 1 -79 -14 -51 -22 -66 -39 -69 -15 -2 -9
-7 22 -16 24 -6 51 -14 60 -17 15 -5 15 -4 0 9 -23 18 -22 27 2 105 11 35 20
67 20 71 0 4 -19 7 -42 8 -39 2 -41 1 -24 -12z"/>
<path d="M1470 430 c-41 -41 -13 -106 42 -98 30 5 36 -8 18 -43 -13 -24 -42
-25 -38 -1 2 11 -3 17 -17 17 -30 0 -26 -36 6 -47 57 -19 109 34 109 112 0 64
-77 103 -120 60z m70 -36 c0 -33 -21 -56 -37 -40 -12 12 -6 68 7 76 21 13 30
2 30 -36z"/>
<path d="M1703 386 c-53 -78 -54 -90 -9 -83 39 6 58 -16 28 -32 -26 -15 -12
-19 38 -12 31 4 40 9 28 13 -22 9 -24 38 -3 38 8 0 15 5 15 10 0 6 -7 10 -15
10 -10 0 -15 10 -15 29 0 38 -11 91 -19 91 -3 0 -25 -29 -48 -64z m27 -31 c0
-31 -3 -35 -25 -35 -14 0 -25 3 -25 6 0 8 40 64 46 64 2 0 4 -16 4 -35z"/>
</g>
</svg>
