<?xml version="1.0" standalone="no"?>
<!DOCTYPE svg PUBLIC "-//W3C//DTD SVG 20010904//EN"
 "http://www.w3.org/TR/2001/REC-SVG-20010904/DTD/svg10.dtd">
<svg version="1.0" xmlns="http://www.w3.org/2000/svg"
 width="711.000000pt" height="400.000000pt" viewBox="0 0 711.000000 400.000000"
 preserveAspectRatio="xMidYMid meet">

<g transform="translate(0.000000,400.000000) scale(0.100000,-0.100000)"
fill="#000000" stroke="none">
<path d="M153 3955 c-15 -25 -32 -43 -38 -42 -5 2 -13 19 -16 38 -7 38 -11 26
-14 -39 -3 -76 -45 -81 -59 -7 -4 19 -11 37 -16 40 -6 4 -10 -196 -10 -549 0
-407 3 -555 11 -558 9 -3 9 -10 0 -26 -9 -17 -11 -84 -7 -250 2 -125 4 -236 4
-247 0 -11 -2 -536 -4 -1168 l-4 -1147 178 0 c151 0 181 3 202 17 24 16 24 16
11 0 -13 -16 23 -17 592 -17 393 0 608 4 612 10 3 6 12 10 18 10 7 0 6 -4 -3
-10 -10 -6 290 -10 857 -10 l873 0 6 23 c3 13 4 41 2 63 -2 31 -10 43 -37 61
-19 13 -47 23 -63 23 -17 0 -27 4 -23 10 8 13 44 13 83 -1 56 -19 90 -107 62
-160 -11 -19 14 -19 1865 -19 l1875 0 0 1304 c0 835 -4 1307 -10 1311 -6 3 -7
40 -3 93 3 48 6 218 7 377 l1 290 -22 10 c-17 7 -23 18 -23 42 0 22 5 33 14
33 14 0 31 29 21 38 -2 3 -11 -1 -19 -7 -12 -10 -17 -8 -26 9 -9 16 -8 24 5
36 8 8 16 18 16 22 17 104 16 126 -5 130 -11 3 -16 0 -12 -7 12 -19 -24 -24
-43 -7 -10 9 -25 16 -33 16 -23 0 -31 -29 -13 -46 8 -9 15 -27 15 -40 0 -29
-31 -67 -38 -46 -5 17 -31 15 -38 -3 -8 -19 -24 -20 -24 -1 0 8 -7 16 -15 20
-19 7 -19 53 0 86 8 14 14 33 15 43 0 29 -30 19 -42 -13 -9 -26 -12 -29 -26
-18 -12 10 -16 10 -19 0 -6 -17 -63 24 -64 46 0 11 -2 13 -6 4 -4 -10 -8 -8
-18 5 -10 14 -16 15 -25 6 -10 -9 -8 -22 5 -57 13 -34 15 -49 7 -59 -6 -7 -14
-32 -18 -56 -4 -23 -13 -49 -21 -57 -8 -7 -11 -19 -8 -24 10 -16 -15 -40 -41
-40 -17 0 -24 6 -24 19 0 11 -3 21 -7 23 -5 2 -15 23 -24 48 -18 48 -18 48
-96 35 -24 -4 -33 -11 -33 -25 0 -21 35 -50 62 -50 9 0 22 -9 28 -20 6 -11 21
-20 33 -20 17 0 19 -2 7 -10 -12 -8 -12 -10 2 -15 28 -11 31 -42 8 -75 -25
-35 -66 -42 -57 -10 6 23 12 22 -118 25 -114 3 -144 -9 -145 -58 0 -24 -30
-53 -72 -69 -3 -2 -8 -12 -10 -23 -1 -11 -12 -25 -23 -30 -11 -6 -28 -26 -37
-45 -10 -19 -18 -30 -18 -25 0 6 -6 -1 -13 -15 -7 -13 -22 -29 -34 -35 -11 -6
-33 -25 -48 -43 -20 -24 -30 -30 -40 -22 -7 6 -17 9 -21 8 -16 -5 -104 65
-104 83 0 36 -12 49 -46 49 -34 0 -47 -21 -23 -36 8 -5 6 -10 -5 -16 -9 -5
-16 -18 -16 -30 0 -11 -11 -31 -25 -44 -22 -20 -24 -26 -13 -49 9 -19 9 -28 0
-37 -9 -9 -12 -7 -12 10 0 31 -30 74 -46 68 -8 -3 -23 4 -34 16 -30 33 -30 68
2 111 14 20 17 32 10 39 -6 6 -8 16 -6 22 3 7 -7 25 -21 40 -15 16 -24 34 -21
42 3 7 1 16 -4 19 -6 4 -7 17 -4 29 4 19 1 24 -18 27 -13 3 -32 3 -44 1 -28
-4 -21 -45 12 -71 23 -18 35 -59 14 -46 -6 3 -13 -1 -16 -9 -4 -11 -14 -14
-30 -10 -14 4 -24 2 -24 -5 0 -5 -16 -1 -35 10 -26 16 -38 18 -52 10 -10 -6
-13 -11 -6 -11 6 0 9 -9 6 -21 -4 -14 1 -25 16 -35 11 -8 21 -21 21 -29 0 -7
5 -15 11 -17 14 -5 24 -84 11 -92 -15 -9 -73 5 -66 16 4 7 -8 8 -35 3 -34 -6
-41 -4 -41 9 0 9 -5 16 -11 16 -8 0 -10 16 -6 53 8 62 -7 98 -43 108 -14 4
-18 7 -9 8 20 1 31 45 16 60 -6 6 -31 11 -55 11 -82 0 -104 31 -54 78 41 39
43 53 11 91 -15 19 -26 38 -23 43 3 4 -3 8 -13 8 -21 0 -57 -59 -49 -80 3 -8
-6 -28 -20 -44 -21 -24 -30 -27 -59 -22 -35 7 -59 -9 -35 -24 9 -6 9 -9 0 -15
-6 -4 -9 -13 -6 -21 3 -9 -1 -14 -13 -14 -10 0 -42 -13 -72 -30 -30 -16 -64
-30 -77 -30 -21 0 -22 3 -17 38 10 56 13 62 38 71 24 9 37 44 37 96 0 12 9 34
20 48 24 30 26 65 5 73 -33 13 -15 47 72 138 19 19 24 30 15 33 -8 3 -5 10 10
23 20 16 21 20 8 35 -9 11 -24 16 -47 13 -22 -3 -33 0 -33 9 0 7 9 13 19 13
10 0 33 13 50 29 28 27 32 28 58 14 14 -7 33 -11 40 -9 10 4 12 -1 7 -19 -4
-18 -1 -27 10 -31 21 -8 56 22 56 48 0 10 4 18 8 18 5 0 22 11 38 25 16 15 41
33 57 43 38 23 35 42 -9 42 -27 0 -43 -7 -65 -31 -16 -17 -29 -35 -29 -40 0
-5 -7 -9 -15 -9 -8 0 -15 6 -15 13 0 24 -40 52 -70 49 -15 -2 -31 1 -35 7 -8
13 -112 15 -120 2 -3 -5 0 -21 6 -34 9 -20 8 -30 -6 -51 -20 -31 -40 -34 -32
-6 8 32 -41 27 -53 -5 -17 -45 -60 -20 -60 36 0 20 -41 69 -59 69 -5 0 -11
-19 -14 -42 -6 -38 -3 -46 19 -64 13 -11 27 -33 30 -48 7 -41 -25 -165 -47
-176 -9 -6 -25 -30 -35 -55 -9 -25 -26 -51 -37 -57 -17 -9 -19 -8 -12 8 4 11
10 40 12 65 5 46 5 46 -28 52 -19 2 -35 4 -37 2 -1 -1 2 -23 7 -49 12 -67 -6
-177 -35 -211 -22 -26 -23 -26 -48 -9 -26 16 -26 16 -37 -15 -7 -20 -18 -31
-30 -31 -10 0 -19 3 -19 8 -1 4 -2 43 -4 87 -2 44 -4 85 -5 90 -1 6 1 24 5 42
5 27 3 32 -18 38 -37 12 -58 36 -58 67 0 17 -6 31 -15 35 -23 8 -25 2 -12 -45
8 -31 8 -53 0 -83 -10 -37 -9 -42 8 -46 22 -6 24 -15 6 -46 -33 -60 -67 -76
-67 -32 0 14 4 25 9 25 5 0 7 9 4 20 -6 21 -33 28 -33 9 0 -7 -11 -8 -32 -3
-18 4 -38 7 -45 7 -7 0 -10 4 -7 8 3 5 0 17 -5 28 -8 14 -7 20 4 25 8 3 15 18
15 33 0 22 -2 25 -10 13 -8 -12 -10 -10 -10 9 0 16 -4 21 -14 18 -11 -4 -13
-1 -9 11 6 15 5 15 -10 3 -14 -11 -20 -11 -34 0 -15 13 -16 11 -10 -11 4 -14
7 -32 7 -40 0 -8 14 -29 30 -47 33 -35 38 -48 15 -39 -12 4 -15 -4 -15 -44 0
-59 -11 -64 -30 -15 -14 36 -24 43 -35 25 -4 -6 -10 -8 -15 -5 -6 4 -4 15 3
26 10 17 9 23 -12 40 -16 13 -31 17 -49 12 -18 -4 -23 -3 -17 7 5 9 2 10 -13
6 -12 -4 -26 -1 -36 9 -10 10 -24 14 -36 10 -16 -5 -20 -2 -20 17 l0 22 -16
-22 c-15 -22 -17 -22 -34 -7 -17 15 -18 13 -30 -35 -12 -51 -7 -100 10 -100 5
0 11 12 13 28 4 24 4 23 6 -7 1 -32 2 -33 18 -18 16 14 20 14 39 -2 11 -9 19
-22 16 -29 -5 -16 10 -16 27 1 10 9 15 9 18 0 2 -7 11 -9 18 -7 11 5 14 -3 11
-30 -2 -30 1 -36 18 -37 20 0 20 -1 -1 -9 -27 -11 -29 -23 -8 -40 17 -14 20
-46 5 -55 -6 -4 -8 -10 -5 -15 3 -5 -5 -10 -17 -12 -16 -2 -23 -10 -22 -24 0
-14 -4 -20 -13 -17 -9 3 -11 0 -7 -10 4 -12 1 -14 -15 -10 -12 3 -22 14 -23
27 -1 11 -2 28 -3 37 0 9 -6 24 -14 32 -7 9 -12 26 -11 39 8 92 -10 139 -24
65 -16 -84 -16 -130 0 -163 13 -26 14 -37 5 -48 -10 -11 -8 -16 5 -24 11 -6
13 -11 5 -16 -16 -10 -13 -29 4 -23 8 4 18 1 22 -5 11 -20 13 -67 3 -73 -6 -3
-10 -14 -10 -24 0 -20 -43 -38 -48 -21 -2 6 -9 7 -15 3 -7 -4 -14 -8 -17 -9
-3 0 -12 -3 -20 -6 -65 -23 -74 -23 -96 -3 -11 11 -24 27 -27 35 -4 12 -6 11
-6 -2 -1 -21 7 -20 -184 -20 -104 1 -153 5 -164 13 -14 12 -80 14 -115 3 -20
-6 -64 -73 -60 -91 2 -7 -5 -13 -15 -13 -17 -1 -17 -2 1 -15 18 -14 18 -15 2
-15 -29 0 -13 -23 35 -47 24 -13 46 -28 47 -33 2 -6 14 -10 27 -10 13 0 31 -3
41 -7 16 -6 16 -7 -2 -14 -15 -6 -12 -8 13 -8 17 -1 34 -7 36 -13 4 -10 6 -10
6 0 1 6 12 12 25 12 12 0 37 5 55 11 17 6 39 8 47 5 15 -6 15 -8 -1 -26 -30
-34 0 -22 41 15 35 33 51 40 81 36 7 -1 24 16 39 39 32 48 69 55 84 15 5 -14
14 -25 19 -25 16 0 20 -41 5 -47 -18 -7 -18 -23 1 -23 9 0 12 -6 9 -15 -4 -8
-2 -15 3 -15 11 0 13 -11 13 -99 0 -36 6 -71 12 -78 14 -18 4 -88 -16 -108 -9
-9 -16 -13 -16 -9 0 5 -5 3 -12 -4 -7 -7 -20 -12 -30 -12 -21 0 -134 35 -160
50 -26 15 -22 1 8 -26 14 -13 33 -24 44 -24 29 0 50 -11 50 -26 0 -8 -6 -11
-15 -8 -21 8 -19 -13 3 -26 12 -8 13 -13 5 -16 -9 -4 -10 -10 -1 -24 9 -14 15
-16 25 -8 11 9 12 6 5 -13 -8 -20 -19 -26 -66 -33 -31 -4 -72 -5 -92 -2 -29 6
-33 10 -24 22 10 11 9 14 -6 14 -14 0 -16 2 -6 9 11 7 10 10 -3 15 -23 8 -22
9 -28 -14 -3 -11 -13 -20 -22 -20 -9 0 -14 4 -10 9 5 9 -33 27 -41 19 -2 -2
-5 -14 -7 -26 -4 -26 -24 -49 -34 -39 -4 4 -1 13 5 19 17 17 15 33 -3 18 -23
-19 -18 4 9 45 14 20 62 65 108 100 88 67 116 101 100 117 -12 12 -122 -79
-122 -102 0 -5 -6 -10 -12 -10 -7 -1 -31 -23 -53 -50 -22 -26 -42 -47 -45 -45
-4 2 -12 -12 -19 -31 -7 -19 -16 -32 -21 -29 -5 3 -13 -2 -18 -11 -8 -15 -10
-15 -15 0 -4 9 -14 16 -23 16 -10 0 -14 -5 -10 -15 3 -8 1 -15 -4 -15 -6 0
-10 11 -10 25 0 15 -6 25 -15 25 -8 0 -12 6 -10 13 7 17 -35 43 -45 27 -6 -9
-9 -9 -15 -1 -4 7 -2 17 4 24 6 8 6 18 0 27 -8 13 -10 13 -19 0 -5 -8 -10 -20
-10 -26 0 -7 -9 -14 -21 -17 -17 -5 -20 -2 -16 14 3 12 0 19 -10 19 -11 0 -14
-7 -9 -24 3 -14 1 -28 -6 -32 -7 -4 -8 -3 -4 4 4 7 3 19 -2 29 -7 11 -5 28 5
51 8 18 9 31 4 27 -7 -3 -11 3 -11 14 0 29 -20 27 -21 -1 l0 -23 -10 23 c-11
28 -2 72 14 69 6 -1 13 6 15 17 2 11 0 16 -7 12 -6 -4 -9 -1 -7 6 13 42 16 69
6 63 -5 -3 -10 2 -10 12 0 11 -7 28 -16 39 -15 18 -15 18 -10 -6 9 -39 -4
-102 -20 -96 -8 3 -11 0 -7 -10 3 -8 12 -13 19 -10 8 3 14 4 14 2 0 -12 -23
-66 -28 -66 -9 0 -8 -64 2 -118 9 -51 63 -158 78 -154 5 1 7 -6 4 -16 -4 -11
1 -29 12 -43 33 -42 61 -116 49 -128 -6 -6 -7 -14 -3 -18 4 -4 12 -1 17 7 9
13 10 12 6 -2 -3 -9 -1 -18 5 -20 8 -3 7 -11 -4 -26 -8 -12 -18 -19 -22 -15
-4 4 -17 8 -29 8 -12 0 -21 5 -20 11 1 6 -5 11 -14 11 -12 0 -9 -6 10 -21 14
-12 40 -32 57 -46 18 -14 38 -24 46 -24 12 2 12 -1 3 -12 -14 -17 2 -19 20 -1
7 6 11 8 9 2 -2 -5 2 -12 7 -14 6 -2 16 -12 23 -23 9 -12 20 -17 33 -13 12 4
19 2 19 -7 0 -7 15 -21 33 -31 17 -10 46 -30 62 -44 22 -19 23 -21 5 -10 -14
9 -73 42 -133 73 -79 41 -126 74 -177 124 l-70 67 0 66 c0 36 -4 69 -10 72 -5
3 -10 15 -10 26 0 21 -16 26 -23 7 -6 -20 -36 53 -39 97 l-3 40 -14 -45 c-8
-25 -14 -90 -15 -145 -1 -97 -2 -100 -24 -103 -24 -4 -25 -11 -7 -54 6 -16 4
-17 -25 -7 -17 6 -32 10 -34 8 -2 -2 -15 -24 -29 -49 -15 -25 -27 -39 -27 -32
0 7 -8 4 -20 -8 -11 -11 -20 -25 -20 -31 0 -6 -9 -8 -20 -4 -11 4 -20 2 -20
-4 0 -6 -5 -11 -10 -11 -6 0 -2 12 7 27 20 29 22 29 -33 6 -15 -6 -11 86 5
115 14 26 7 27 -47 8 -24 -9 -44 -11 -47 -6 -7 11 65 81 77 74 4 -3 5 1 2 9
-3 8 2 20 11 27 8 7 15 22 15 34 0 19 -2 18 -25 -9 -27 -34 -34 -22 -8 15 16
22 16 23 0 17 -11 -4 -17 -1 -17 8 0 8 -5 15 -11 15 -8 0 -8 4 -1 13 5 6 13
34 17 62 17 121 14 136 -22 93 -10 -13 -30 -24 -46 -24 -41 -3 -60 -12 -53
-29 7 -19 -1 -19 -20 0 -13 13 -19 12 -52 -8 -20 -13 -45 -26 -54 -30 -10 -3
-18 -16 -18 -28 0 -12 -8 -28 -17 -35 -15 -11 -16 -15 -4 -23 10 -6 -17 -29
-99 -85 -62 -42 -121 -76 -132 -76 -10 0 -17 -4 -13 -9 3 -5 0 -13 -6 -17 -8
-4 -9 -3 -5 4 4 7 4 12 1 12 -12 0 -171 -94 -182 -108 -18 -21 -43 2 -43 40 0
47 36 49 53 3 3 -6 17 -2 33 8 50 31 163 87 175 87 18 0 204 133 192 137 -8 3
-8 13 1 36 13 38 23 47 98 90 68 39 86 66 90 138 4 78 27 73 44 -9 5 -26 14
-42 22 -42 14 0 64 41 58 48 -3 2 -12 -1 -21 -8 -9 -7 -15 -8 -15 -2 0 6 17
21 37 33 21 12 40 24 42 26 2 1 5 15 6 30 1 16 8 54 14 87 10 43 10 60 2 65
-8 5 -8 22 -1 61 5 29 10 87 10 129 0 78 16 253 26 283 2 9 -1 22 -9 29 -12
11 -11 17 2 40 13 23 13 29 1 44 -12 14 -16 15 -24 3 -6 -8 -19 -17 -28 -21
-9 -3 -25 -19 -34 -34 -10 -15 -29 -40 -43 -55 -20 -22 -21 -28 -8 -28 20 0
32 -19 20 -31 -20 -20 -50 -18 -63 6 -11 21 -9 28 21 67 18 23 44 55 57 69 19
22 21 30 12 51 -17 37 10 98 44 98 38 0 56 10 56 32 0 14 5 18 18 14 24 -7 72
37 70 66 -1 13 11 52 25 88 15 36 30 80 33 98 4 18 11 35 15 38 5 3 9 14 9 25
0 11 8 22 18 26 9 3 31 18 47 33 17 15 44 34 60 42 17 9 49 25 71 37 23 11 49
21 57 21 9 0 24 8 34 19 10 10 34 21 53 25 19 3 52 9 73 12 29 5 35 9 26 20
-6 7 -8 18 -4 24 4 7 -170 10 -563 10 -467 0 -572 -2 -581 -14 -6 -7 -12 -31
-13 -53 -1 -30 -5 -39 -20 -40 -13 -1 -18 5 -18 22 0 13 -7 30 -15 38 -8 8
-11 17 -8 21 4 3 1 6 -6 6 -7 0 -10 4 -7 8 2 4 -8 9 -24 10 -23 2 -28 -1 -24
-13 4 -8 2 -15 -4 -15 -5 0 -12 7 -16 15 -4 11 -21 15 -67 15 -54 0 -60 -2
-54 -17 5 -10 8 -26 9 -35 0 -9 4 -14 8 -12 4 3 9 2 9 -3 1 -4 3 -21 5 -37 1
-16 15 -46 30 -68 22 -31 27 -49 25 -86 -1 -26 5 -65 14 -86 15 -35 15 -40 0
-63 -17 -25 -14 -53 5 -53 5 0 10 9 10 20 0 10 9 24 20 30 11 6 20 9 20 8 0
-2 9 -27 20 -57 18 -45 18 -52 5 -48 -8 4 -15 2 -15 -2 0 -5 -3 -18 -7 -28 -6
-16 -5 -16 10 -5 21 18 37 7 37 -24 0 -13 4 -24 9 -24 10 0 -7 -91 -20 -105
-14 -15 -10 -28 6 -21 13 5 14 2 5 -15 -9 -15 -8 -24 1 -35 9 -11 8 -14 -10
-14 -25 0 -27 -22 -5 -45 12 -11 13 -19 5 -28 -5 -7 -8 -22 -5 -33 4 -15 -4
-23 -36 -36 -39 -16 -40 -16 -55 5 -8 12 -15 32 -15 46 0 13 -8 30 -17 37 -15
10 -16 15 -6 25 7 7 13 21 13 31 0 10 7 21 15 24 8 3 14 18 15 32 0 15 0 41 1
57 2 111 -2 184 -9 189 -6 3 -12 -3 -15 -13 -2 -11 -17 -22 -34 -25 -26 -6
-29 -10 -25 -40 3 -27 -1 -36 -25 -51 -15 -10 -38 -18 -50 -17 -18 1 -23 -3
-23 -23 0 -18 4 -23 16 -18 12 4 15 2 12 -8 -2 -8 -14 -15 -26 -17 -12 -2 -29
-13 -37 -25 -15 -21 -17 -21 -29 -4 -13 17 -51 14 -40 -4 8 -13 -46 -119 -61
-119 -6 0 -20 -9 -30 -20 -10 -11 -28 -20 -41 -20 -12 0 -33 -13 -47 -30 -29
-34 -37 -30 -31 15 6 52 -7 125 -23 125 -12 0 -14 19 -9 113 3 61 8 212 12
335 3 123 8 235 10 250 3 14 2 37 -1 50 -4 18 -11 23 -33 20 -24 -3 -27 -7
-24 -35 2 -19 -1 -33 -7 -33 -6 0 -11 -7 -11 -15 0 -8 -11 -22 -25 -31 -28
-18 -33 -51 -10 -60 21 -8 19 -24 -3 -24 -27 0 -33 -9 -19 -30 13 -23 -5 -70
-27 -70 -8 0 -30 19 -49 42 -28 33 -33 46 -27 64 5 13 4 26 -2 32 -7 7 -4 20
11 41 17 24 20 35 12 50 -6 11 -8 27 -5 35 4 12 0 16 -15 16 -12 0 -21 5 -21
10 0 6 -19 10 -43 10 l-43 0 -1 -77 c0 -43 -6 -98 -13 -123 -7 -25 -12 -71
-11 -102 l1 -58 -48 -24 c-27 -13 -54 -31 -61 -39 -7 -9 -14 -53 -16 -102 -3
-74 -1 -86 12 -81 10 4 32 -9 60 -34 24 -23 63 -49 87 -60 37 -16 50 -29 85
-93 22 -41 41 -82 41 -91 0 -10 -11 -33 -24 -53 l-25 -36 20 -25 c15 -19 17
-27 7 -33 -16 -10 -28 -2 -22 15 3 7 -2 18 -10 25 -17 14 -65 4 -73 -15 -4
-10 -16 -12 -44 -8 -26 4 -39 3 -39 -5 0 -6 -5 -11 -11 -11 -6 0 -8 7 -5 15 8
21 -30 35 -67 24 -24 -7 -29 -5 -37 17 -11 27 -20 30 -38 12 -18 -18 -15 -25
13 -32 25 -6 34 -30 15 -41 -6 -4 -10 -14 -8 -23 1 -10 0 -19 -2 -22 -5 -4
-40 22 -71 54 -18 18 -18 18 -15 -20 2 -22 4 -42 5 -46 1 -8 42 -23 54 -20 4
1 7 -3 7 -8 0 -6 9 -10 19 -10 11 0 26 -6 33 -13 7 -7 26 -22 42 -35 16 -12
22 -22 15 -22 -10 -1 -8 -5 5 -15 28 -21 11 -34 -41 -31 -50 3 -63 15 -38 36
13 11 12 15 -12 36 -16 13 -31 24 -34 24 -11 0 -18 -27 -12 -49 4 -15 1 -21
-12 -21 -12 0 -16 -6 -12 -20 3 -11 1 -23 -4 -26 -5 -3 -9 -14 -9 -25 0 -22
-18 -24 -70 -9 -22 6 -36 6 -38 1 -2 -6 -10 -7 -18 -4 -16 6 -19 -13 -4 -22 8
-5 8 -11 0 -20 -8 -9 -8 -15 0 -20 5 -3 10 -17 10 -31 0 -13 4 -24 9 -24 6 0
10 -18 9 -39 0 -31 -5 -40 -22 -45 -11 -3 -22 -1 -24 3 -2 5 -27 7 -56 4 -48
-5 -53 -3 -69 21 -10 15 -15 31 -12 36 8 13 -11 13 -36 0 -15 -9 -19 -7 -20 7
-1 54 -8 114 -14 123 -4 6 -9 39 -11 73 -6 84 -10 93 -30 76 -9 -7 -21 -25
-26 -39 -6 -14 -12 -20 -15 -12 -3 6 -12 12 -22 12 -20 0 -57 112 -66 200 -3
30 -10 78 -16 105 -5 28 -14 117 -19 198 -5 82 -13 154 -18 160 -5 7 -14 55
-21 107 -14 117 -13 121 91 334 42 88 44 96 24 96 -8 0 -27 -20 -43 -45z
m4815 -1 c-9 -10 -21 -13 -29 -8 -9 5 -8 9 7 15 31 12 39 10 22 -7z m-3108
-18 c0 -16 -19 -25 -38 -18 -9 3 -10 8 -1 18 15 18 39 18 39 0z m50 -16 c0 -5
-4 -10 -10 -10 -5 0 -10 5 -10 10 0 6 5 10 10 10 6 0 10 -4 10 -10z m-120 -10
c0 -5 -7 -10 -16 -10 -8 0 -12 5 -9 10 3 6 10 10 16 10 5 0 9 -4 9 -10z m355
-43 c19 -42 7 -87 -25 -87 -28 0 -36 40 -15 84 10 20 19 36 21 36 2 0 10 -15
19 -33z m-1115 -139 c0 -10 3 -9 9 1 7 11 14 10 37 -5 47 -31 63 -51 57 -72
-6 -23 -18 -22 -77 3 -21 9 -45 14 -52 11 -18 -7 -19 45 -2 62 16 16 28 15 28
0z m210 -147 l0 -25 -20 22 c-21 22 -25 43 -13 56 11 11 33 -24 33 -53z m905
33 c11 -8 21 -25 22 -37 1 -12 5 -37 9 -55 4 -20 2 -38 -7 -48 -11 -14 -17 -7
-46 50 -28 56 -31 69 -21 86 15 24 17 24 43 4z m4633 -29 c2 -23 0 -24 -18
-15 -21 11 -24 19 -14 44 9 23 29 4 32 -29z m-5663 25 c-3 -5 -12 -10 -18 -10
-7 0 -6 4 3 10 19 12 23 12 15 0z m41 -27 c-10 -10 -19 5 -10 18 6 11 8 11 12
0 2 -7 1 -15 -2 -18z m1146 -8 c8 -19 8 -29 0 -37 -18 -18 -42 -1 -42 32 0 38
26 41 42 5z m-1352 -35 c0 -5 -4 -10 -10 -10 -5 0 -10 5 -10 10 0 6 5 10 10
10 6 0 10 -4 10 -10z m100 0 c0 -5 -4 -10 -10 -10 -5 0 -10 5 -10 10 0 6 5 10
10 10 6 0 10 -4 10 -10z m5864 -25 c-4 -8 -10 -12 -15 -9 -11 6 -2 24 11 24 5
0 7 -7 4 -15z m-5734 -9 c0 -7 9 -20 20 -27 17 -12 20 -27 21 -114 1 -54 -2
-100 -7 -102 -5 -2 -21 17 -37 41 -26 41 -27 47 -17 92 6 27 8 65 5 86 -5 25
-3 38 4 38 6 0 11 -6 11 -14z m5645 -19 c14 -30 14 -37 1 -62 -17 -33 -33 -45
-61 -45 -26 0 -56 -74 -44 -106 7 -21 -7 -101 -21 -117 -4 -5 -17 -3 -28 4
-17 10 -23 10 -37 -1 -14 -12 -14 -15 6 -37 13 -12 28 -23 35 -23 22 0 26 -19
13 -55 -19 -51 -35 -51 -66 3 -15 26 -31 50 -35 53 -13 9 3 69 18 69 19 0 18
10 -3 27 -12 8 -13 12 -4 11 7 -2 16 3 19 11 3 10 0 12 -12 8 -9 -4 -16 -5
-16 -3 0 3 -3 11 -6 20 -5 13 2 16 35 16 23 0 41 5 41 10 0 6 7 10 15 10 17 0
20 31 5 46 -6 6 -14 34 -19 62 -7 47 -6 52 11 52 14 0 18 5 14 18 -3 9 -1 23
4 31 7 12 13 13 34 3 29 -13 52 -8 60 14 9 23 24 16 41 -19z m-5745 9 c0 -3
-4 -8 -10 -11 -5 -3 -10 -1 -10 4 0 6 5 11 10 11 6 0 10 -2 10 -4z m1450 -21
c0 -8 -4 -15 -10 -15 -5 0 -10 7 -10 15 0 8 5 15 10 15 6 0 10 -7 10 -15z
m-260 -10 c0 -9 -6 -12 -15 -9 -8 4 -12 10 -9 15 8 14 24 10 24 -6z m1720 -11
c0 -11 8 -14 33 -12 29 3 32 0 29 -21 -3 -29 28 -68 39 -49 13 20 41 -10 29
-31 -10 -20 14 -117 36 -142 8 -8 14 -22 14 -30 0 -8 7 -23 16 -34 9 -12 12
-30 9 -47 -4 -15 3 -60 14 -103 42 -152 20 -139 -29 19 -19 60 -40 111 -47
113 -7 3 -13 11 -13 19 0 7 -6 11 -14 8 -8 -3 -17 -1 -21 5 -9 16 -25 13 -25
-4 0 -24 -27 -17 -49 13 l-20 27 -1 -27 c0 -16 -4 -28 -9 -28 -5 0 -8 19 -6
43 4 55 4 55 16 34 6 -9 15 -15 20 -11 6 4 6 10 -1 19 -8 10 -6 13 7 11 24 -1
30 39 9 60 -9 8 -16 24 -16 35 0 11 -7 22 -15 25 -9 4 -14 17 -13 33 1 14 -2
41 -6 59 -5 21 -4 32 3 32 6 0 11 -7 11 -16z m-1842 -28 c-10 -7 -18 -18 -18
-24 0 -17 -41 -42 -68 -42 -18 0 -23 4 -18 16 3 9 6 18 6 20 0 8 83 44 100 43
12 0 12 -2 -2 -13z m333 -29 c-8 -8 -14 -8 -22 0 -7 7 -5 16 8 28 17 18 18 18
21 1 2 -10 -1 -23 -7 -29z m1414 33 c3 -5 1 -10 -4 -10 -6 0 -11 5 -11 10 0 6
2 10 4 10 3 0 8 -4 11 -10z m367 -25 c0 -14 1 -31 2 -37 1 -7 -7 -14 -16 -16
-24 -5 -44 44 -27 64 18 22 39 16 41 -11z m-2462 -4 c0 -12 -29 -41 -40 -41
-12 0 0 32 14 42 15 10 26 10 26 -1z m470 -6 c0 -15 -26 -32 -36 -23 -2 3 -2
13 2 22 8 20 34 21 34 1z m-86 -10 c-6 -16 -24 -21 -24 -7 0 11 11 22 21 22 5
0 6 -7 3 -15z m144 -7 c7 -7 12 -18 12 -26 0 -19 -40 -73 -50 -67 -14 8 -18
58 -7 82 11 25 27 29 45 11z m-328 -33 c-7 -8 -17 -15 -22 -15 -6 0 -5 7 2 15
7 8 17 15 22 15 6 0 5 -7 -2 -15z m170 -23 c0 -21 -38 -42 -75 -42 -37 0 -30
13 18 37 52 27 57 27 57 5z m-406 -16 c-7 -19 -34 -29 -34 -12 0 16 10 26 26
26 8 0 11 -6 8 -14z m470 -11 c-6 -16 -24 -21 -24 -7 0 11 11 22 21 22 5 0 6
-7 3 -15z m1963 -17 c-3 -8 -6 -5 -6 6 -1 11 2 17 5 13 3 -3 4 -12 1 -19z
m-2163 -12 c-6 -17 -34 -30 -34 -16 0 5 8 14 18 19 22 13 22 13 16 -3z m186
-47 c-14 -25 -68 -49 -110 -49 -16 0 -30 -4 -30 -9 0 -5 -7 -11 -15 -15 -9 -3
-15 0 -15 8 0 8 19 22 43 32 23 10 60 26 82 35 52 23 58 23 45 -2z m-970 1 c0
-5 -5 -10 -11 -10 -5 0 -7 5 -4 10 3 6 8 10 11 10 2 0 4 -4 4 -10z m510 6 c0
-2 -11 -6 -25 -8 -14 -3 -25 -1 -25 3 0 5 11 9 25 9 14 0 25 -2 25 -4z m501
-29 c-16 -16 -26 0 -10 19 9 11 15 12 17 4 2 -6 -1 -17 -7 -23z m-649 -29 c22
-34 28 -89 10 -95 -18 -8 -33 16 -26 43 4 15 0 25 -12 32 -10 6 -15 16 -11 26
9 22 22 20 39 -6z m2223 0 c12 -27 52 -40 42 -14 -4 10 -1 16 8 16 13 0 17 -9
14 -37 0 -5 -6 -7 -14 -7 -7 1 -11 -4 -8 -12 3 -8 -2 -17 -11 -20 -9 -3 -14
-10 -11 -14 3 -5 1 -11 -5 -15 -6 -4 -10 5 -10 22 -1 26 -2 27 -14 10 -13 -17
-15 -15 -26 19 -10 30 -10 38 1 45 11 7 11 9 1 9 -7 0 -10 5 -7 10 11 17 30
11 40 -12z m525 -28 c-15 -28 -23 -20 -14 15 4 17 10 23 16 17 6 -6 6 -18 -2
-32z m2030 20 c0 -5 -2 -10 -4 -10 -3 0 -8 5 -11 10 -3 6 -1 10 4 10 6 0 11
-4 11 -10z m-4388 -17 c0 -4 9 -20 20 -35 16 -24 17 -28 4 -28 -9 0 -16 5 -16
10 0 6 -7 10 -15 10 -17 0 -18 4 -9 38 6 21 15 24 16 5z m-444 -44 c0 -29 -4
-46 -8 -39 -13 21 -34 5 -49 -35 -15 -42 -7 -54 39 -56 17 -1 19 -3 8 -6 -10
-2 -18 -11 -18 -19 0 -8 -4 -14 -8 -14 -17 0 -41 -55 -31 -73 6 -9 7 -17 3
-17 -3 0 -1 -7 6 -15 22 -27 3 -27 -23 -1 -20 20 -22 26 -10 26 12 0 13 3 3
14 -6 8 -17 13 -25 10 -16 -6 -29 12 -15 21 5 3 10 12 10 18 0 9 -2 9 -8 0 -4
-7 -12 -9 -18 -5 -10 7 -64 87 -64 96 0 2 14 9 31 16 17 7 56 39 87 72 72 74
90 76 90 7z m949 24 c2 -6 -3 -13 -11 -16 -10 -4 -14 0 -13 14 1 20 18 21 24
2z m1509 -20 c-10 -10 -19 5 -10 18 6 11 8 11 12 0 2 -7 1 -15 -2 -18z m42
-44 c19 -75 -24 -188 -58 -153 -12 14 -24 98 -12 90 5 -3 12 5 14 18 3 17 0
23 -11 22 -19 -1 -28 41 -12 57 8 8 11 5 11 -11 0 -12 9 -26 21 -32 17 -10 20
-9 19 7 -8 76 10 77 28 2z m382 38 c0 -13 -7 -32 -15 -43 -12 -16 -16 -17 -24
-4 -7 9 -4 23 7 42 20 34 32 36 32 5z m-330 3 c0 -5 -4 -10 -10 -10 -5 0 -10
5 -10 10 0 6 5 10 10 10 6 0 10 -4 10 -10z m-2970 -30 c0 -5 -5 -10 -11 -10
-5 0 -7 5 -4 10 3 6 8 10 11 10 2 0 4 -4 4 -10z m3710 -15 c0 -8 -4 -15 -10
-15 -5 0 -7 7 -4 15 4 8 8 15 10 15 2 0 4 -7 4 -15z m-2860 -18 c0 -13 -9 -32
-20 -42 -22 -19 -23 -15 -14 34 8 36 34 42 34 8z m106 -19 c21 -40 13 -55 -26
-53 -26 2 -36 -4 -53 -32 -12 -18 -33 -36 -47 -40 -14 -3 -33 -14 -43 -24 -20
-21 -33 -24 -42 -9 -9 15 12 37 52 57 20 9 55 43 81 78 26 35 50 61 55 58 4
-2 14 -18 23 -35z m-275 10 c4 -6 17 -15 30 -22 18 -9 24 -20 25 -46 0 -19 -4
-41 -9 -48 -6 -7 -11 -42 -11 -78 -1 -61 5 -77 19 -54 4 6 10 8 15 5 10 -6 -5
-46 -32 -87 -16 -23 -23 -26 -56 -21 -65 10 -92 29 -92 65 0 18 9 41 20 53 19
20 19 20 -15 57 -20 21 -31 39 -25 43 5 3 10 15 10 26 0 14 9 21 30 25 25 5
27 8 15 20 -7 8 -18 14 -23 14 -9 0 -22 32 -22 58 0 14 111 5 121 -10z m2049
18 c0 -2 -7 -6 -15 -10 -8 -3 -15 -1 -15 4 0 6 7 10 15 10 8 0 15 -2 15 -4z
m-2220 -44 c0 -5 -9 -18 -20 -30 -17 -18 -25 -20 -40 -12 -26 14 -25 24 3 38
27 13 57 15 57 4z m-780 -22 c0 -5 -2 -10 -4 -10 -3 0 -8 5 -11 10 -3 6 -1 10
4 10 6 0 11 -4 11 -10z m285 -28 c-3 -3 -11 0 -18 7 -9 10 -8 11 6 5 10 -3 15
-9 12 -12z m5852 -27 c-13 -27 -27 -33 -27 -12 0 14 19 37 31 37 4 0 2 -11 -4
-25z m-5380 -7 c21 -17 3 -38 -32 -38 -19 0 -36 -4 -39 -9 -9 -14 40 -41 74
-41 20 0 30 -5 30 -15 0 -8 -4 -15 -10 -15 -5 0 -10 -7 -10 -15 0 -8 -4 -15
-10 -15 -13 0 -13 -27 0 -32 15 -5 21 -67 10 -89 -7 -12 -7 -20 0 -24 5 -3 10
-14 10 -23 0 -13 -7 -9 -25 13 -19 22 -25 39 -22 67 1 20 -2 34 -6 31 -5 -3
-6 5 -2 18 4 17 3 20 -3 10 -7 -10 -17 -3 -40 31 l-30 43 18 48 c29 76 46 86
87 55z m433 -18 c0 -5 -4 -10 -10 -10 -5 0 -10 5 -10 10 0 6 5 10 10 10 6 0
10 -4 10 -10z m-847 -21 c-4 -15 -8 -17 -14 -8 -6 11 4 28 18 29 0 0 -1 -9 -4
-21z m2051 5 c9 -3 13 -10 10 -16 -3 -5 -11 -4 -20 3 -11 9 -14 8 -14 -5 0 -9
-4 -16 -10 -16 -14 0 -13 13 2 28 14 14 12 14 32 6z m728 -49 c-4 -50 -15 -71
-24 -44 -5 14 14 99 22 99 3 0 3 -25 2 -55z m-2983 8 c-5 -14 -7 -34 -4 -44 4
-12 1 -21 -9 -25 -9 -3 -16 -12 -16 -19 0 -20 -41 -30 -51 -14 -13 20 -12 23
16 49 14 13 25 28 25 35 0 18 31 56 40 50 5 -3 5 -17 -1 -32z m3336 -5 c-4
-18 -11 -43 -16 -56 -8 -22 -10 -22 -25 -7 -15 15 -15 17 0 34 9 10 16 22 16
27 0 10 20 34 28 34 2 0 0 -15 -3 -32z m-82 -35 c46 -109 58 -131 87 -160 17
-18 34 -33 38 -33 4 0 8 -9 8 -20 0 -11 -5 -20 -11 -20 -14 0 -30 20 -89 108
-31 45 -55 71 -65 70 -20 -4 -26 26 -11 63 16 38 24 37 43 -8z m-2243 17 c0
-5 -2 -10 -4 -10 -3 0 -8 5 -11 10 -3 6 -1 10 4 10 6 0 11 -4 11 -10z m2024
-6 c7 -19 -2 -37 -15 -29 -12 8 -12 45 0 45 5 0 12 -7 15 -16z m-1924 -14 c0
-5 -4 -10 -10 -10 -5 0 -10 5 -10 10 0 6 5 10 10 10 6 0 10 -4 10 -10z m-1080
-10 c0 -5 -4 -10 -10 -10 -5 0 -10 5 -10 10 0 6 5 10 10 10 6 0 10 -4 10 -10z
m245 -40 c-5 -36 -5 -37 -16 -18 -5 10 -7 29 -3 44 8 33 23 12 19 -26z m752 8
c-3 -8 -6 -5 -6 6 -1 11 2 17 5 13 3 -3 4 -12 1 -19z m2033 11 c0 -4 -7 -10
-16 -13 -17 -6 -9 -27 9 -25 32 4 36 -1 26 -33 -5 -17 -13 -36 -18 -41 -6 -6
-3 -25 6 -51 9 -22 28 -77 43 -121 15 -44 33 -79 39 -78 6 2 11 -3 11 -11 0
-19 26 -67 32 -61 8 9 39 -44 33 -55 -3 -6 -2 -10 4 -10 5 0 11 5 13 11 4 12
38 1 38 -12 0 -5 -3 -8 -7 -7 -8 3 -69 -40 -107 -74 -19 -17 -42 -15 -31 3 4
5 1 9 -4 9 -11 0 -15 -18 -13 -50 0 -8 -12 -31 -28 -50 -29 -35 -29 -35 -57
-18 -15 9 -41 38 -58 64 -25 41 -29 57 -28 113 0 37 6 79 12 94 6 16 11 58 11
95 0 37 4 83 10 102 6 21 6 47 1 66 -7 24 -6 31 3 28 6 -2 12 5 13 16 1 11 -2
20 -8 20 -10 0 -12 43 -3 75 4 15 14 20 40 21 18 0 34 -3 34 -7z m2975 1 c-3
-5 -11 -10 -16 -10 -6 0 -7 5 -4 10 3 6 11 10 16 10 6 0 7 -4 4 -10z m-5087
-12 c19 -19 14 -28 -13 -28 -18 0 -25 5 -25 20 0 22 20 26 38 8z m-933 -7 c7
-12 -12 -24 -25 -16 -11 7 -4 25 10 25 5 0 11 -4 15 -9z m-774 -43 c7 -13 20
-29 31 -36 10 -7 18 -21 18 -31 0 -9 5 -22 11 -28 6 -6 9 -19 6 -29 -4 -15 -5
-14 -6 5 -1 23 -2 23 -32 -10 -17 -19 -28 -29 -25 -22 3 6 -2 26 -13 45 -22
37 -36 101 -26 117 10 17 23 13 36 -11z m1871 -2 c11 -17 9 -76 -2 -76 -13 0
-50 60 -50 82 0 12 6 15 23 10 12 -3 25 -10 29 -16z m-1087 0 c35 -18 44 -69
18 -98 -15 -17 -15 -19 0 -31 14 -10 15 -18 8 -44 -5 -18 -7 -41 -4 -52 6 -22
-14 -159 -25 -175 -7 -11 -6 -50 3 -161 5 -58 -10 -115 -31 -115 -15 0 -19
-12 -7 -24 4 -4 8 -13 8 -19 1 -7 9 -30 19 -52 17 -37 17 -42 2 -68 -9 -16
-16 -39 -16 -53 0 -34 -23 -114 -33 -114 -4 0 -5 -15 -2 -33 5 -25 1 -39 -14
-57 -12 -14 -21 -20 -20 -15 1 6 -1 18 -6 28 -5 11 -2 24 9 36 21 24 20 48 -3
54 -17 4 -18 14 -14 112 2 59 8 116 14 127 11 20 4 58 -11 58 -21 0 -31 40
-17 69 12 23 12 31 0 46 -17 24 -16 75 2 99 10 13 11 24 5 37 -6 9 -8 24 -5
31 3 8 -1 28 -10 44 -19 36 -19 63 -1 83 14 17 28 121 16 121 -32 0 0 97 40
122 11 7 20 18 20 23 0 9 19 35 26 35 1 0 14 -6 29 -14z m435 10 c0 -20 -16
-36 -36 -36 -26 0 -30 10 -12 28 11 11 48 17 48 8z m-585 -57 c-4 -46 -9 -54
-24 -44 -22 13 -10 85 14 85 10 0 13 -12 10 -41z m1145 5 c6 -15 19 -38 28
-53 10 -14 30 -54 45 -88 23 -52 26 -65 16 -87 -7 -14 -15 -26 -18 -26 -10 1
-36 42 -51 80 -7 19 -22 46 -32 59 -10 13 -18 34 -18 46 0 18 -4 22 -20 18
-17 -5 -20 0 -20 26 0 28 8 36 33 32 4 0 7 4 7 9 0 20 21 9 30 -16z m-200 -19
c0 -8 5 -15 10 -15 6 0 10 -20 10 -45 0 -25 -4 -45 -10 -45 -5 0 -10 8 -10 19
0 10 -11 26 -25 35 -29 19 -31 29 -9 50 20 20 34 20 34 1z m40 5 c0 -5 -5 -10
-11 -10 -5 0 -7 5 -4 10 3 6 8 10 11 10 2 0 4 -4 4 -10z m-1280 -14 c0 -11
-19 -15 -25 -6 -3 5 1 10 9 10 9 0 16 -2 16 -4z m6390 0 c0 -11 -19 -15 -25
-6 -3 5 1 10 9 10 9 0 16 -2 16 -4z m-5840 -27 c0 -5 -4 -9 -10 -9 -5 0 -10 7
-10 16 0 8 5 12 10 9 6 -3 10 -10 10 -16z m-463 5 c-3 -3 -12 -4 -19 -1 -8 3
-5 6 6 6 11 1 17 -2 13 -5z m-17 -28 c0 -3 -4 -8 -10 -11 -5 -3 -10 -1 -10 4
0 6 5 11 10 11 6 0 10 -2 10 -4z m1082 -47 c-4 -25 -1 -29 18 -29 19 0 22 -4
17 -32 -2 -18 2 -49 10 -68 8 -19 13 -46 11 -60 -1 -14 2 -31 6 -39 6 -9 5
-12 -5 -9 -20 7 -90 130 -84 148 4 8 3 11 -1 7 -4 -4 -13 2 -21 13 -12 17 -12
40 2 85 1 6 13 11 27 11 21 1 24 -2 20 -27z m1948 6 c20 -24 6 -28 -15 -5 -10
11 -13 20 -8 20 6 0 16 -7 23 -15z m-2510 -132 c-1 -85 -5 -123 -15 -136 -10
-15 -11 -25 -3 -42 11 -25 5 -55 -11 -55 -6 0 -13 11 -17 25 -3 14 -10 25 -15
25 -5 0 -9 7 -9 15 0 8 5 15 10 15 6 0 10 5 10 10 0 6 -9 10 -20 10 -11 0 -20
7 -20 15 0 8 7 15 16 15 13 0 14 6 7 33 -10 41 -6 143 7 168 6 11 21 19 35 19
l25 0 0 -117z m104 108 c4 -5 1 -22 -5 -38 -9 -25 -11 -26 -20 -10 -17 30 8
76 25 48z m2926 -16 c0 -16 -6 -25 -15 -25 -18 0 -18 5 -5 31 14 26 20 24 20
-6z m994 9 c10 -26 7 -34 -14 -34 -13 0 -20 7 -20 18 0 33 23 44 34 16z
m-1014 -68 c0 -8 -4 -18 -10 -21 -5 -3 -10 -4 -10 -1 0 2 -3 11 -6 20 -4 11
-1 16 10 16 9 0 16 -6 16 -14z m2760 0 c0 -8 -4 -18 -10 -21 -5 -3 -10 3 -10
14 0 12 5 21 10 21 6 0 10 -6 10 -14z m-4120 -10 c0 -2 3 -13 6 -23 5 -17 5
-17 -6 0 -6 9 -15 15 -21 12 -5 -4 -9 -1 -9 4 0 6 7 11 15 11 8 0 15 -2 15 -4z
m-825 -26 c3 -5 -1 -10 -10 -10 -9 0 -13 5 -10 10 3 6 8 10 10 10 2 0 7 -4 10
-10z m-81 -57 c6 2 12 13 14 25 4 29 22 18 22 -14 0 -21 -5 -24 -35 -24 -33 0
-35 2 -34 33 l1 32 10 -28 c5 -15 15 -26 22 -24z m3789 21 c9 -9 -15 -54 -29
-54 -15 0 -25 25 -18 45 6 15 35 21 47 9z m-2758 -24 c3 -5 1 -10 -4 -10 -6 0
-11 5 -11 10 0 6 2 10 4 10 3 0 8 -4 11 -10z m-1568 -66 c2 -24 0 -44 -4 -44
-5 0 -9 24 -11 52 -2 29 0 49 5 45 4 -5 9 -28 10 -53z m111 21 c-3 -3 -9 2
-12 12 -6 14 -5 15 5 6 7 -7 10 -15 7 -18z m2111 -16 c-8 -5 -25 -9 -39 -8
-24 0 -24 0 5 13 31 14 57 10 34 -5z m-232 -39 c32 -6 84 -10 116 -10 43 0 57
-3 54 -12 -2 -7 -12 -12 -21 -12 -9 1 -16 -2 -16 -7 0 -5 -9 -9 -19 -9 -11 0
-23 -4 -26 -10 -3 -5 -1 -10 4 -10 6 0 11 -5 11 -11 0 -6 -17 -9 -41 -7 -33 2
-44 -1 -53 -17 -12 -22 -47 -54 -58 -55 -17 0 -68 85 -68 112 0 43 17 70 40
63 10 -3 44 -10 77 -15z m1093 -5 c0 -26 -14 -33 -25 -15 -9 14 1 40 15 40 5
0 10 -11 10 -25z m-1230 11 c0 -3 -4 -8 -10 -11 -5 -3 -10 -1 -10 4 0 6 5 11
10 11 6 0 10 -2 10 -4z m1095 -14 c-3 -3 -11 0 -18 7 -9 10 -8 11 6 5 10 -3
15 -9 12 -12z m-686 -7 c-9 -9 -23 -13 -33 -9 -14 5 -15 9 -4 15 7 5 22 9 33
9 17 0 18 -2 4 -15z m-59 1 c0 -3 -4 -8 -10 -11 -5 -3 -10 -1 -10 4 0 6 5 11
10 11 6 0 10 -2 10 -4z m696 -27 c19 -22 19 -22 -3 -10 -24 12 -39 31 -25 31
5 0 17 -10 28 -21z m-1086 2 c0 -6 -4 -13 -10 -16 -5 -3 -10 1 -10 9 0 9 5 16
10 16 6 0 10 -4 10 -9z m1500 -66 c-7 -8 -18 -15 -26 -15 -17 0 -14 42 6 57
21 16 39 -19 20 -42z m-1510 5 c0 -5 -2 -10 -4 -10 -3 0 -8 5 -11 10 -3 6 -1
10 4 10 6 0 11 -4 11 -10z m2290 0 c0 -5 -4 -10 -10 -10 -5 0 -10 5 -10 10 0
6 5 10 10 10 6 0 10 -4 10 -10z m-3177 -36 c-3 -8 3 -21 13 -29 18 -13 18 -14
1 -21 -27 -10 -40 8 -28 38 5 14 7 29 3 34 -4 4 -2 4 5 0 7 -4 10 -13 6 -22z
m-82 -17 c-13 -12 -20 -15 -16 -7 14 26 28 41 33 35 3 -3 -5 -16 -17 -28z
m2657 7 c-10 -10 -23 -14 -34 -10 -16 6 -16 8 -4 16 8 6 24 10 35 10 18 0 18
-1 3 -16z m-1569 -47 c0 -9 -2 -9 -6 1 -2 6 -11 12 -19 12 -8 0 -14 5 -14 10
0 7 6 7 20 0 11 -6 20 -16 19 -23z m246 23 c3 -5 1 -10 -4 -10 -6 0 -11 5 -11
10 0 6 2 10 4 10 3 0 8 -4 11 -10z m1705 -21 c0 -11 -4 -18 -9 -14 -6 3 -9 14
-8 25 2 24 17 15 17 -11z m-4110 -3 c0 -26 -15 -43 -24 -28 -7 12 4 52 15 52
5 0 9 -11 9 -24z m2390 -7 c0 -6 -4 -7 -10 -4 -5 3 -10 11 -10 16 0 6 5 7 10
4 6 -3 10 -11 10 -16z m2530 0 c0 -12 -8 -23 -20 -26 -24 -6 -26 -20 -5 -26
11 -4 10 -4 -2 -3 -13 1 -19 11 -21 39 -3 34 -1 37 22 37 20 0 26 -5 26 -21z
m-1066 -16 c7 -18 -23 -113 -35 -113 -5 0 -12 0 -16 0 -5 0 -9 5 -9 10 -1 6
-2 11 -3 13 -8 9 -8 85 0 98 10 20 55 14 63 -8z m-3637 -15 c-3 -8 -6 -5 -6 6
-1 11 2 17 5 13 3 -3 4 -12 1 -19z m1970 16 c-3 -3 -12 -4 -19 -1 -8 3 -5 6 6
6 11 1 17 -2 13 -5z m40 -10 c-3 -3 -12 -4 -19 -1 -8 3 -5 6 6 6 11 1 17 -2
13 -5z m-3037 -87 c22 -63 25 -83 10 -92 -17 -10 -70 85 -70 125 0 73 28 57
60 -33z m1820 73 c0 -5 -2 -10 -4 -10 -3 0 -8 5 -11 10 -3 6 -1 10 4 10 6 0
11 -4 11 -10z m-119 -17 c13 -15 12 -15 -8 -4 -24 12 -29 21 -14 21 5 0 15 -7
22 -17z m1309 9 c0 -10 -22 -32 -32 -32 -5 0 -3 9 4 20 13 20 28 27 28 12z
m95 -8 c-9 -9 -19 -13 -23 -10 -3 4 0 11 8 16 24 15 33 11 15 -6z m-63 -16
c-6 -6 -15 -8 -19 -4 -4 4 -1 11 7 16 19 12 27 3 12 -12z m2264 2 c17 0 20
-71 4 -101 -8 -14 -7 -33 4 -68 10 -35 13 -77 9 -148 -3 -54 -6 -110 -7 -124
-1 -17 -6 -25 -14 -22 -8 4 -10 0 -6 -11 4 -11 1 -16 -10 -16 -21 0 -32 31
-35 94 -1 27 -9 74 -17 105 -7 30 -14 65 -14 76 0 30 23 75 38 75 8 0 10 5 6
12 -15 24 -13 103 4 128 9 15 17 20 20 12 2 -6 10 -12 18 -12z m-178 -51 c1
-30 5 -61 9 -69 3 -8 5 -19 4 -24 -1 -4 2 -13 7 -20 25 -32 20 -57 -20 -97
-24 -23 -38 -45 -34 -54 3 -8 0 -17 -6 -21 -7 -5 -8 -2 -3 6 5 8 3 11 -6 8 -8
-3 -13 -11 -11 -18 2 -10 -3 -9 -20 2 -13 9 -22 23 -20 31 1 8 -2 34 -7 56 -5
23 -5 41 -1 41 7 0 12 32 24 133 3 30 53 90 71 84 5 -2 11 -28 13 -58z m-1983
33 c-3 -3 -11 0 -18 7 -9 10 -8 11 6 5 10 -3 15 -9 12 -12z m-78 -6 c-3 -8 -2
-16 4 -18 12 -4 -18 -48 -33 -48 -6 0 -3 8 6 19 9 10 16 22 15 27 -3 16 1 34
7 34 3 0 4 -6 1 -14z m-54 -11 c-3 -9 -8 -14 -10 -11 -3 3 -2 9 2 15 9 16 15
13 8 -4z m878 -2 c12 -16 12 -17 -1 -7 -8 6 -22 14 -30 17 -13 5 -12 6 1 6 9
1 23 -7 30 -16z m1085 -76 c21 -12 17 -37 -6 -37 -13 0 -18 -5 -14 -15 4 -8 2
-15 -4 -15 -13 0 -29 45 -36 101 -7 62 5 70 27 17 10 -24 25 -47 33 -51z
m-3290 74 c-7 -11 -91 -34 -108 -29 -7 3 7 12 32 21 51 17 84 21 76 8z m972
-9 c6 -18 -15 -14 -22 4 -4 10 -1 14 6 12 6 -2 14 -10 16 -16z m1283 1 c13
-16 12 -17 -3 -4 -17 13 -22 21 -14 21 2 0 10 -8 17 -17z m-2476 -23 c-16 -16
-31 -27 -34 -24 -6 6 45 54 56 54 4 0 -6 -13 -22 -30z m1785 9 c0 -6 -4 -7
-10 -4 -5 3 -10 11 -10 16 0 6 5 7 10 4 6 -3 10 -11 10 -16z m-110 -21 c0 -5
-4 -7 -9 -3 -6 3 -14 -3 -20 -12 -13 -24 -21 -13 -10 14 8 22 39 23 39 1z
m971 5 c13 -16 12 -17 -3 -4 -17 13 -22 21 -14 21 2 0 10 -8 17 -17z m-211
-18 c7 -9 8 -15 2 -15 -5 0 -12 7 -16 15 -3 8 -4 15 -2 15 2 0 9 -7 16 -15z
m-3094 -19 c16 -13 18 -18 7 -45 -6 -17 -9 -40 -6 -51 4 -16 0 -20 -20 -20
-24 0 -25 3 -29 61 -1 33 -1 63 1 65 8 8 27 4 47 -10z m614 4 c0 -5 -4 -10
-10 -10 -5 0 -10 5 -10 10 0 6 5 10 10 10 6 0 10 -4 10 -10z m1750 0 c0 -5 -2
-10 -4 -10 -3 0 -8 5 -11 10 -3 6 -1 10 4 10 6 0 11 -4 11 -10z m686 -15 c-4
-14 -2 -25 3 -25 5 0 12 -8 15 -17 6 -15 4 -15 -13 2 -14 13 -19 27 -15 43 4
12 9 22 11 22 3 0 2 -11 -1 -25z m164 5 c6 -11 8 -20 6 -20 -3 0 -10 9 -16 20
-6 11 -8 20 -6 20 3 0 10 -9 16 -20z m60 -16 c0 -3 -7 -1 -15 6 -8 7 -15 17
-15 22 0 5 7 3 15 -6 8 -8 15 -18 15 -22z m60 12 c0 -2 -7 -7 -16 -10 -8 -3
-12 -2 -9 4 6 10 25 14 25 6z m-332 -18 c15 -15 16 -38 0 -38 -6 0 -8 3 -5 7
4 3 0 15 -10 25 -18 20 -4 25 15 6z m-2423 -8 c3 -5 2 -10 -4 -10 -5 0 -13 5
-16 10 -3 6 -2 10 4 10 5 0 13 -4 16 -10z m2530 0 c-3 -5 -11 -10 -16 -10 -6
0 -7 5 -4 10 3 6 11 10 16 10 6 0 7 -4 4 -10z m63 -17 c9 -15 10 -23 3 -23 -6
0 -11 7 -11 15 0 9 -10 20 -22 25 -18 8 -18 9 -4 7 10 -1 25 -12 34 -24z m301
-10 c2 -2 0 -3 -6 -3 -6 0 -21 9 -34 21 l-24 20 30 -17 c17 -10 32 -19 34 -21z
m-252 12 c8 -9 13 -18 11 -21 -3 -2 -13 5 -23 16 -21 23 -11 27 12 5z m1691
-60 c4 -86 -13 -256 -27 -284 -22 -40 -36 -13 -41 77 -12 210 0 286 43 280 20
-3 22 -9 25 -73z m-1623 55 c-3 -5 -11 -10 -16 -10 -6 0 -7 5 -4 10 3 6 11 10
16 10 6 0 7 -4 4 -10z m-2836 -53 c-22 -18 -24 -18 -27 -2 -2 9 4 25 14 36 17
18 18 19 27 3 8 -13 4 -22 -14 -37z m2882 36 c13 -17 13 -17 -6 -3 -11 8 -22
16 -24 17 -2 2 0 3 6 3 6 0 17 -8 24 -17z m-390 -3 c12 -7 19 -20 18 -38 -2
-23 -2 -24 -6 -5 -2 13 -14 30 -26 38 -24 17 -15 20 14 5z m459 -22 c0 -6 -7
-5 -15 2 -8 7 -15 17 -15 22 0 6 7 5 15 -2 8 -7 15 -17 15 -22z m-375 -26 c-7
-7 -45 29 -45 41 0 6 11 0 25 -13 14 -13 23 -26 20 -28z m87 31 c10 -9 18 -26
17 -37 0 -18 -2 -17 -10 6 -12 31 -36 43 -56 27 -7 -7 -17 -9 -20 -5 -9 8 16
26 36 26 8 0 23 -7 33 -17z m88 -41 c0 -9 -44 25 -48 37 -2 7 7 3 22 -10 14
-12 26 -25 26 -27z m960 18 c0 -32 -23 -42 -34 -15 -3 8 -1 15 4 15 6 0 9 3 9
8 -3 14 1 22 11 22 6 0 10 -13 10 -30z m-916 5 c-25 -19 -40 -19 -24 0 7 8 20
15 28 15 13 0 12 -3 -4 -15z m102 -1 c-4 -10 1 -22 11 -30 15 -10 21 -10 36 3
10 9 17 11 17 5 0 -6 -9 -16 -19 -22 -26 -13 -65 17 -56 43 4 9 9 17 12 17 3
0 2 -7 -1 -16z m-36 -38 c0 -6 -9 0 -20 14 -12 15 -20 19 -20 11 0 -8 -3 -12
-6 -8 -3 3 -3 11 1 17 8 13 45 -15 45 -34z m289 7 c2 -2 0 -3 -6 -3 -6 0 -21
9 -34 21 l-24 20 30 -17 c17 -10 32 -19 34 -21z m-2420 18 c8 -5 15 -15 17
-23 1 -7 9 -35 18 -61 18 -54 21 -103 6 -112 -5 -3 -10 -14 -10 -24 0 -38 -31
-121 -45 -121 -8 0 -15 -4 -15 -9 0 -4 -12 -7 -26 -5 -16 1 -24 -2 -21 -9 2
-7 12 -11 21 -9 20 4 45 -24 46 -50 0 -10 5 -18 11 -18 8 0 10 -15 7 -44 -3
-26 -1 -49 6 -56 8 -8 7 -13 -2 -19 -11 -6 -8 -14 10 -35 l23 -27 65 29 c36
17 85 35 110 41 25 7 66 21 92 32 41 17 88 24 283 45 39 4 57 1 81 -14 29 -19
63 -82 44 -82 -4 0 -10 6 -13 13 -3 9 -9 9 -27 -1 -22 -14 -191 -19 -211 -7
-5 4 -9 1 -9 -4 0 -6 -7 -11 -16 -11 -11 0 -15 -6 -11 -20 3 -11 2 -20 -1 -20
-4 0 -20 -12 -37 -26 -16 -14 -44 -34 -62 -45 -34 -21 -47 -54 -17 -42 15 5
15 3 -1 -20 -17 -27 -17 -27 7 -27 13 0 34 7 46 16 12 8 22 12 22 8 0 -5 5 -3
12 4 7 7 25 12 40 12 15 0 28 5 28 10 0 7 36 10 101 8 96 -3 103 -5 120 -28 9
-14 20 -36 23 -50 6 -25 6 -25 -5 -2 -7 12 -19 22 -28 22 -14 0 -14 2 -1 10
12 8 10 10 -10 10 -20 0 -22 2 -10 10 11 7 2 10 -32 10 -27 0 -48 -4 -48 -10
0 -5 -7 -10 -15 -10 -9 0 -18 -7 -21 -15 -4 -10 -13 -13 -26 -9 -19 6 -19 5
-3 -20 22 -32 11 -64 -23 -73 -53 -12 -115 -44 -142 -71 -56 -57 -130 -102
-164 -102 -8 0 -37 -21 -65 -46 -28 -25 -51 -41 -51 -34 0 6 -6 10 -12 7 -7
-2 -12 -11 -10 -21 2 -9 -4 -16 -13 -16 -9 0 -13 -5 -10 -11 10 -16 -15 -68
-36 -74 -16 -5 -17 -10 -8 -26 14 -27 54 -22 54 6 0 30 14 47 35 40 11 -3 20
0 24 10 3 8 17 15 31 15 14 0 25 4 25 8 0 4 24 22 53 40 28 17 60 41 69 52 22
24 36 26 34 3 -2 -27 31 -27 60 0 15 14 40 28 56 31 16 3 39 16 51 29 14 14
35 24 57 25 28 1 31 0 18 -8 -9 -6 -15 -17 -12 -25 4 -10 0 -15 -14 -15 -12 0
-22 -9 -26 -23 -5 -22 -19 -31 -106 -72 -19 -9 -49 -24 -66 -34 -42 -25 -74
-35 -74 -22 0 6 7 11 16 11 17 0 16 31 -1 37 -6 2 -37 -22 -69 -52 -37 -34
-69 -55 -83 -55 -13 0 -23 -4 -23 -10 0 -5 -8 -10 -18 -10 -9 0 -34 -11 -54
-25 -20 -14 -44 -25 -52 -25 -9 0 -16 -7 -16 -15 0 -8 5 -15 11 -15 5 0 7 -4
4 -10 -3 -5 -22 -10 -41 -10 -19 0 -33 4 -30 9 3 5 16 7 28 3 14 -3 19 -1 14
6 -7 11 -59 10 -88 -2 -9 -4 -21 -6 -25 -3 -4 3 -19 1 -32 -4 -19 -8 -21 -12
-11 -24 7 -8 21 -15 31 -15 11 0 19 -6 19 -13 0 -14 -54 -67 -68 -67 -6 0 -20
-12 -32 -27 -21 -27 -90 -45 -90 -23 0 17 -27 11 -36 -7 -4 -10 -7 -21 -6 -24
0 -3 -10 -18 -24 -34 -24 -28 -33 -20 -14 15 11 20 4 50 -11 50 -5 0 -9 -7 -9
-15 0 -8 -4 -15 -10 -15 -5 0 -10 5 -10 12 0 11 -14 2 -16 -10 0 -4 -4 -15 -8
-25 -5 -9 -5 -29 -2 -43 13 -52 -13 -13 -35 54 -20 56 -23 88 -24 195 0 145
-3 139 95 197 24 14 64 45 90 70 41 39 50 55 64 115 10 39 35 107 56 152 21
45 46 108 55 140 9 32 30 84 46 116 21 40 35 89 45 154 17 118 17 126 2 117
-7 -4 -5 1 4 12 32 36 51 140 44 235 -4 47 -3 88 0 92 10 10 46 8 63 -2z m171
-5 c0 -3 -4 -8 -10 -11 -5 -3 -10 -1 -10 4 0 6 5 11 10 11 6 0 10 -2 10 -4z
m1561 -28 c8 -14 8 -23 0 -31 -8 -8 -11 -5 -11 12 0 14 -7 25 -20 28 -11 3
-17 9 -15 14 8 12 34 -1 46 -23z m549 16 c0 -2 -7 -4 -15 -4 -8 0 -15 4 -15
10 0 5 7 7 15 4 8 -4 15 -8 15 -10z m-505 -14 c10 -11 13 -20 7 -20 -6 0 -16
9 -22 20 -6 11 -9 20 -7 20 2 0 12 -9 22 -20z m118 -13 c16 -21 18 -30 9 -39
-9 -9 -7 -18 11 -37 l22 -25 -25 16 c-20 13 -24 22 -22 51 4 45 -23 65 -56 41
-26 -18 -29 -12 -6 11 22 21 42 16 67 -18z m457 -9 c0 -6 -7 -5 -15 2 -8 7
-15 17 -15 22 0 6 7 5 15 -2 8 -7 15 -17 15 -22z m-389 -5 l24 -27 -24 15
c-14 9 -27 21 -29 27 -6 19 3 14 29 -15z m109 0 c14 -18 17 -30 10 -37 -16
-16 -12 -29 7 -22 10 4 14 4 10 0 -4 -4 -2 -13 4 -21 15 -17 -1 -16 -25 2 -11
9 -16 20 -12 31 15 40 -19 73 -55 54 -10 -6 -19 -7 -19 -2 0 32 53 29 80 -5z
m-3054 -35 c-3 -29 -6 -63 -6 -74 0 -12 -7 -25 -16 -28 -12 -5 -14 -1 -8 17 6
20 10 51 13 115 1 12 6 22 12 22 8 0 10 -16 5 -52z m3124 42 c5 9 8 5 7 -12
-2 -21 -5 -24 -18 -17 -9 5 -20 16 -23 25 -6 14 -4 15 10 4 13 -11 17 -11 24
0z m-1940 -15 c-7 -9 -15 -13 -19 -10 -3 3 1 10 9 15 21 14 24 12 10 -5z m110
5 c8 -5 12 -11 9 -14 -3 -3 -14 1 -25 9 -21 16 -8 20 16 5z m1928 -9 c24 -20
29 -41 10 -41 -6 0 -8 3 -5 7 10 9 -14 34 -26 26 -6 -3 -7 -1 -3 5 9 15 -9 15
-37 0 -20 -10 -21 -10 -8 5 18 22 43 21 69 -2z m-1990 -11 c-7 -10 -14 -18
-15 -16 -6 6 9 36 18 36 5 0 4 -9 -3 -20z m2276 -9 c-2 -3 -12 3 -22 13 -16
17 -16 18 5 5 12 -7 20 -15 17 -18z m-846 7 c7 -7 12 -23 12 -37 0 -13 -3 -21
-7 -17 -4 4 -8 15 -8 24 0 9 -11 22 -25 29 -22 11 -23 13 -4 13 11 0 25 -5 32
-12z m165 -16 c9 -8 17 -23 17 -34 0 -25 -15 -23 -17 3 -3 34 -19 44 -48 31
-28 -13 -35 2 -8 17 19 10 27 7 56 -17z m463 1 c-7 -7 -26 7 -26 19 0 6 6 6
15 -2 9 -7 13 -15 11 -17z m-570 -4 c19 -22 19 -22 -3 -10 -13 6 -23 16 -23
21 0 15 5 12 26 -11z m284 -9 c21 -21 27 -50 10 -50 -5 0 -10 9 -10 20 0 22
-42 50 -48 31 -2 -6 -11 -11 -19 -11 -13 0 -13 3 -3 15 17 21 46 19 70 -5z
m-2115 0 c-3 -5 -12 -10 -18 -10 -7 0 -6 4 3 10 19 12 23 12 15 0z m269 1 c4
-5 -3 -7 -14 -4 -23 6 -26 13 -6 13 8 0 17 -4 20 -9z m773 -13 c-3 -8 -6 -5
-6 6 -1 11 2 17 5 13 3 -3 4 -12 1 -19z m1263 -18 c12 -23 13 -30 1 -30 -5 0
-11 9 -14 20 -7 26 -35 36 -58 21 -12 -7 -19 -8 -19 -1 0 16 43 29 62 19 10
-5 22 -18 28 -29z m219 6 c-3 -3 -11 5 -18 17 -13 21 -12 21 5 5 10 -10 16
-20 13 -22z m56 -4 c-6 -6 -35 18 -35 29 0 5 9 1 20 -8 11 -9 17 -19 15 -21z
m-2245 14 c0 -2 -7 -6 -15 -10 -8 -3 -15 -1 -15 4 0 6 7 10 15 10 8 0 15 -2
15 -4z m38 -16 c-7 -11 -17 -20 -22 -20 -5 0 -1 9 9 20 10 11 20 20 22 20 2 0
-2 -9 -9 -20z m2002 -21 c0 -14 -5 -11 -31 17 l-24 27 28 -18 c15 -9 27 -21
27 -26z m-105 21 c3 -5 1 -10 -4 -10 -6 0 -11 5 -11 10 0 6 2 10 4 10 3 0 8
-4 11 -10z m154 7 c-2 -1 -12 -9 -22 -16 -15 -12 -17 -12 -11 3 3 9 13 16 22
16 8 0 13 -1 11 -3z m26 -6 c3 -5 1 -12 -5 -16 -5 -3 -10 1 -10 9 0 18 6 21
15 7z m-1394 -36 c12 8 11 -66 -1 -85 -7 -12 -10 -8 -10 15 0 17 -2 46 -4 65
-2 19 -1 27 1 17 2 -9 9 -15 14 -12z m673 19 c19 -19 21 -41 4 -47 -9 -3 -8
-10 6 -26 11 -11 14 -21 8 -21 -18 0 -31 33 -25 63 4 21 1 29 -18 36 -17 7
-19 10 -7 10 9 1 24 -6 32 -15z m172 -9 c9 -14 12 -30 8 -37 -6 -9 -10 -6 -14
11 -7 33 -37 51 -50 31 -5 -8 -12 -11 -15 -8 -12 12 6 28 30 28 15 0 31 -10
41 -25z m840 10 c9 -8 11 -15 6 -15 -5 0 -15 7 -22 15 -7 8 -9 15 -6 15 4 0
14 -7 22 -15z m-3834 -51 c-6 -29 -13 -40 -29 -42 -28 -4 -38 25 -13 40 14 9
16 16 8 25 -8 10 -4 15 13 22 29 11 32 5 21 -45z m2884 35 c19 -22 19 -22 -3
-10 -13 6 -23 16 -23 21 0 15 5 12 26 -11z m683 -21 c-11 -7 -11 -11 -1 -15 7
-2 17 -14 23 -26 9 -19 7 -18 -17 5 -21 21 -25 31 -17 39 6 6 9 19 6 28 -3 11
-1 11 7 -3 10 -14 9 -20 -1 -28z m56 13 c-6 -5 -25 10 -25 20 0 5 6 4 14 -3 8
-7 12 -15 11 -17z m-2632 4 c-3 -9 -8 -14 -10 -11 -3 3 -2 9 2 15 9 16 15 13
8 -4z m122 5 c-3 -5 -11 -10 -16 -10 -6 0 -7 5 -4 10 3 6 11 10 16 10 6 0 7
-4 4 -10z m280 0 c8 -13 -5 -13 -25 0 -13 8 -13 10 2 10 9 0 20 -4 23 -10z
m1661 -17 c-7 -7 -26 7 -26 19 0 6 6 6 15 -2 9 -7 13 -15 11 -17z m116 2 c8
-18 8 -28 -1 -39 -10 -12 -8 -17 9 -26 12 -6 19 -14 16 -17 -3 -4 -15 2 -26
12 -14 12 -17 22 -11 34 6 9 5 23 -1 34 -7 14 -16 17 -40 12 -21 -5 -28 -4
-24 4 4 6 21 11 37 11 22 0 32 -7 41 -25z m171 -3 c18 -16 24 -58 7 -47 -5 3
-10 14 -10 25 0 22 -23 32 -58 24 -25 -5 -26 -4 -9 10 20 16 41 12 70 -12z
m347 18 c0 -5 -7 -10 -16 -10 -8 0 -12 5 -9 10 3 6 10 10 16 10 5 0 9 -4 9
-10z m-720 -10 c0 -5 -2 -10 -4 -10 -3 0 -8 5 -11 10 -3 6 -1 10 4 10 6 0 11
-4 11 -10z m275 -20 c12 -19 -12 -10 -31 11 -19 22 -19 22 3 10 12 -6 25 -16
28 -21z m495 9 c7 -11 9 -23 6 -27 -3 -3 -6 0 -6 6 0 6 -7 18 -16 26 -8 9 -11
16 -5 16 6 0 15 -9 21 -21z m-2290 6 c0 -2 -10 -9 -22 -15 -22 -11 -22 -10 -4
4 21 17 26 19 26 11z m41 -26 c-12 -13 -21 -19 -21 -14 0 11 32 46 38 41 2 -3
-5 -15 -17 -27z m1977 -48 c24 -22 30 -51 10 -51 -6 0 -8 3 -5 6 3 4 2 15 -4
26 -9 17 -17 19 -47 13 l-37 -7 19 21 c19 21 19 22 -2 37 -12 8 -22 21 -22 27
0 7 15 -2 33 -20 17 -18 42 -41 55 -52z m56 46 c17 -24 18 -29 6 -37 -12 -7
-11 -12 4 -29 11 -12 14 -21 9 -21 -18 0 -36 29 -29 46 16 42 -30 74 -62 42
-7 -7 -12 -8 -12 -2 0 17 24 35 44 32 10 -2 28 -16 40 -31z m282 -5 c-6 -5
-36 23 -36 34 0 4 9 -1 20 -11 11 -10 18 -20 16 -23z m-2778 -2 c-7 -10 -14
-17 -17 -15 -4 4 18 35 25 35 2 0 -1 -9 -8 -20z m62 10 c0 -5 -7 -7 -15 -4 -8
4 -15 8 -15 10 0 2 7 4 15 4 8 0 15 -4 15 -10z m2552 -12 c-6 -6 -15 -8 -19
-4 -4 4 -1 11 7 16 19 12 27 3 12 -12z m242 13 c3 -4 -6 -6 -19 -3 -14 2 -25
6 -25 8 0 8 39 4 44 -5z m-1104 -20 c5 -11 10 -26 10 -33 0 -7 -6 -4 -12 7 -6
11 -18 26 -26 33 -14 11 -14 12 1 12 9 0 21 -9 27 -19z m164 3 c9 -8 16 -23
16 -32 -1 -11 -6 -8 -16 11 -16 29 -41 35 -64 15 -12 -11 -12 -10 -1 5 17 21
45 22 65 1z m763 -30 c2 -15 0 -14 -9 4 -6 13 -17 21 -25 18 -7 -3 -13 1 -13
11 0 14 2 14 23 1 12 -9 23 -24 24 -34z m-696 10 c22 -25 22 -26 3 -16 -12 6
-24 18 -28 27 -8 21 -3 19 25 -11z m110 5 c21 -21 22 -40 2 -46 -7 -3 -9 4 -6
16 4 15 -1 23 -18 30 -14 5 -28 5 -33 0 -16 -15 -29 -10 -16 6 17 21 46 19 71
-6z m845 0 c19 -22 19 -22 -3 -8 -13 8 -23 17 -23 21 0 12 6 9 26 -13z m-2596
8 c0 -2 -10 -12 -21 -23 -22 -19 -22 -19 -10 4 10 18 31 31 31 19z m1925 -17
c12 -13 15 -27 11 -46 -6 -21 -4 -25 8 -21 10 4 13 1 9 -9 -6 -17 -17 -18 -31
-1 -6 7 -7 18 -3 26 21 34 -14 70 -50 51 -10 -6 -19 -7 -19 -2 0 28 50 30 75
2z m480 -18 c-6 -7 -45 19 -45 29 0 5 11 2 24 -8 13 -10 23 -19 21 -21z m-400
-11 c5 -11 2 -11 -17 1 -12 8 -24 20 -26 27 -6 18 36 -9 43 -28z m445 29 c0
-5 -8 -10 -17 -10 -15 0 -16 2 -3 10 19 12 20 12 20 0z m46 -25 c9 -14 14 -28
10 -32 -3 -3 -6 -1 -6 5 0 7 -9 21 -20 32 -11 11 -16 20 -10 20 5 0 17 -11 26
-25z m-2801 5 c-3 -5 -11 -10 -16 -10 -6 0 -7 5 -4 10 3 6 11 10 16 10 6 0 7
-4 4 -10z m2584 -16 c22 -28 27 -44 12 -44 -5 0 -12 11 -15 24 -6 26 -38 40
-55 23 -6 -6 -14 -7 -18 -3 -9 9 16 26 39 26 9 0 26 -12 37 -26z m-909 -32 c0
-9 -7 -6 -20 11 -11 14 -20 29 -20 33 0 4 9 -1 20 -11 11 -10 20 -25 20 -33z
m157 26 c24 -22 31 -48 13 -48 -5 0 -10 5 -10 12 0 6 -10 22 -22 35 -27 29
-12 30 19 1z m1029 -5 c-7 -7 -26 7 -26 19 0 6 6 6 15 -2 9 -7 13 -15 11 -17z
m-4108 0 c-5 -25 -28 -28 -28 -4 0 12 6 21 16 21 9 0 14 -7 12 -17z m2992 -19
c0 -13 -31 0 -40 17 -11 20 -11 20 14 4 14 -10 26 -19 26 -21z m32 14 c-7 -7
-12 -8 -12 -2 0 14 12 26 19 19 2 -3 -1 -11 -7 -17z m879 -5 l24 -27 -24 15
c-14 9 -27 21 -29 27 -6 19 3 14 29 -15z m283 18 c4 -5 -3 -7 -14 -4 -23 6
-26 13 -6 13 8 0 17 -4 20 -9z m-3639 -11 c3 -5 1 -10 -4 -10 -6 0 -11 5 -11
10 0 6 2 10 4 10 3 0 8 -4 11 -10z m2601 -17 c-7 -7 -26 7 -26 19 0 6 6 6 15
-2 9 -7 13 -15 11 -17z m108 5 c18 -26 20 -38 6 -38 -5 0 -9 3 -9 8 5 32 -21
48 -52 32 -10 -6 -19 -7 -19 -2 0 30 54 29 74 0z m167 9 c24 -19 29 -44 12
-59 -14 -11 -15 -10 -10 7 12 38 -26 63 -55 37 -11 -9 -18 -11 -18 -4 0 12 28
31 45 31 6 0 17 -5 26 -12z m578 -13 c16 -20 18 -30 10 -40 -8 -10 -7 -17 5
-29 22 -22 20 -28 -4 -15 -17 9 -20 17 -14 45 7 37 -13 57 -47 48 -11 -3 -19
0 -19 6 0 22 48 11 69 -15z m-663 -21 c-7 -7 -46 16 -46 28 0 5 11 2 25 -7 14
-9 24 -19 21 -21z m254 27 c31 -16 42 -46 25 -60 -13 -11 -14 -10 -9 4 10 26
-16 49 -48 42 -30 -6 -40 9 -10 17 9 3 18 5 20 6 2 0 12 -4 22 -9z m675 -20
l20 -25 -22 19 c-13 11 -23 24 -23 29 0 6 1 8 3 6 1 -2 11 -15 22 -29z m-1813
9 c22 -12 48 -66 48 -103 0 -25 -44 -86 -61 -86 -5 0 0 13 12 30 37 49 26 130
-19 155 -15 8 -21 14 -14 15 7 0 22 -5 34 -11z m1308 -9 c30 -16 44 -48 29
-66 -10 -12 -8 -18 7 -30 11 -9 13 -14 5 -12 -8 2 -21 15 -30 28 -10 14 -11
21 -3 16 18 -11 16 29 -3 44 -9 7 -25 10 -42 5 -23 -5 -25 -4 -14 9 16 19 25
20 51 6z m296 -5 c9 -8 11 -15 6 -15 -5 0 -15 7 -22 15 -7 8 -9 15 -6 15 4 0
14 -7 22 -15z m114 -31 c12 -31 12 -34 2 -34 -4 0 -8 9 -9 21 -2 26 -34 52
-47 38 -6 -5 -15 -9 -20 -9 -6 0 -3 7 8 15 24 18 53 4 66 -31z m-486 10 c4
-11 2 -12 -14 -1 -11 6 -20 15 -20 19 0 12 28 -3 34 -18z m-3564 -11 c0 -20
-3 -24 -11 -16 -7 7 -9 19 -6 27 10 24 17 19 17 -11z m3740 -16 c0 -6 -9 -2
-20 8 -11 10 -20 23 -20 28 0 6 9 2 20 -8 11 -10 20 -23 20 -28z m88 23 c24
-23 29 -56 10 -63 -9 -3 -7 -11 7 -27 13 -15 15 -21 6 -18 -25 8 -37 36 -24
57 9 15 9 23 -2 37 -11 16 -17 16 -39 6 -27 -12 -34 -4 -14 16 17 17 31 15 56
-8z m-910 -2 c7 -7 12 -21 11 -32 0 -15 -2 -17 -6 -6 -3 8 -12 23 -21 33 -17
19 -3 24 16 5z m164 -5 c10 -9 18 -26 17 -37 0 -18 -2 -17 -10 5 -10 28 -45
45 -52 25 -2 -6 -8 -8 -12 -4 -10 10 4 28 22 28 9 0 25 -7 35 -17z m553 7 c3
-5 1 -10 -4 -10 -6 0 -11 5 -11 10 0 6 2 10 4 10 3 0 8 -4 11 -10z m-649 -28
c-4 -3 -14 2 -24 12 -16 18 -16 18 6 6 13 -6 21 -14 18 -18z m219 9 c-3 -6
-11 -11 -17 -11 -6 0 -6 6 2 15 14 17 26 13 15 -4z m59 -3 c20 -28 20 -48 1
-48 -9 0 -12 6 -8 16 4 11 -2 23 -18 35 -19 15 -20 19 -7 19 9 0 24 -10 32
-22z m703 15 c-4 -3 3 -11 15 -17 12 -6 24 -18 26 -26 4 -12 3 -13 -10 -3 -8
7 -19 9 -23 5 -5 -4 -5 -1 0 7 6 11 2 13 -19 7 -30 -7 -34 1 -8 20 18 14 30
19 19 7z m139 -20 c-7 -7 -26 7 -26 19 0 6 6 6 15 -2 9 -7 13 -15 11 -17z
m-1211 7 c3 -5 1 -10 -4 -10 -6 0 -11 5 -11 10 0 6 2 10 4 10 3 0 8 -4 11 -10z
m555 -9 c15 -28 12 -41 -7 -41 -14 0 -15 2 -5 9 11 6 10 11 -3 25 -19 19 -37
20 -53 4 -7 -7 -12 -8 -12 -2 0 30 64 34 80 5z m710 9 c-20 -13 -33 -13 -25 0
3 6 14 10 23 10 15 0 15 -2 2 -10z m-3700 -10 c0 -5 -2 -10 -4 -10 -3 0 -8 5
-11 10 -3 6 -1 10 4 10 6 0 11 -4 11 -10z m2610 0 c0 -5 -2 -10 -4 -10 -3 0
-8 5 -11 10 -3 6 -1 10 4 10 6 0 11 -4 11 -10z m85 -1 c11 -17 -1 -21 -15 -4
-8 9 -8 15 -2 15 6 0 14 -5 17 -11z m175 1 c8 -5 11 -12 7 -16 -4 -4 -15 0
-24 9 -18 18 -8 23 17 7z m874 -6 c5 -14 4 -15 -9 -4 -17 14 -19 20 -6 20 5 0
12 -7 15 -16z m-784 -4 c0 -5 -2 -10 -4 -10 -3 0 -8 5 -11 10 -3 6 -1 10 4 10
6 0 11 -4 11 -10z m96 -18 c-4 -3 -14 2 -24 12 -16 18 -16 18 6 6 13 -6 21
-14 18 -18z m100 2 c12 -17 14 -28 7 -35 -7 -7 -12 0 -17 22 -5 29 -8 31 -36
25 -19 -3 -29 -2 -25 4 12 20 54 10 71 -16z m159 -9 c26 -25 33 -55 14 -55 -5
0 -8 4 -5 9 3 5 -3 19 -13 32 -16 20 -21 21 -35 10 -21 -17 -33 -7 -16 14 17
21 27 19 55 -10z m489 -4 c-2 -3 -12 3 -22 13 -16 17 -16 18 5 5 12 -7 20 -15
17 -18z m-190 -18 c4 -10 1 -10 -14 -1 -11 7 -22 18 -24 25 -4 10 -1 10 14 1
11 -7 22 -18 24 -25z m-4470 21 c22 -9 20 -24 -3 -24 -21 0 -34 13 -24 24 8 7
8 7 27 0z m466 -4 c0 -5 -2 -10 -4 -10 -3 0 -8 5 -11 10 -3 6 -1 10 4 10 6 0
11 -4 11 -10z m2972 -7 c21 -18 23 -39 6 -49 -7 -5 -9 -2 -5 9 8 21 -18 40
-48 35 -24 -5 -32 2 -18 15 12 12 46 7 65 -10z m1099 7 c10 -6 19 -15 19 -21
0 -6 -7 -4 -15 4 -8 9 -24 13 -36 10 -15 -4 -20 -3 -15 5 9 15 22 15 47 2z
m-3207 -9 c4 -5 -3 -7 -14 -4 -23 6 -26 13 -6 13 8 0 17 -4 20 -9z m2181 -29
c-6 -6 -35 18 -35 29 0 5 9 1 20 -8 11 -9 17 -19 15 -21z m101 21 c17 -22 18
-53 2 -53 -6 0 -3 -9 7 -20 10 -11 13 -20 7 -20 -17 0 -33 35 -21 47 25 25
-28 66 -56 43 -15 -12 -22 0 -8 13 13 13 56 7 69 -10z m192 -34 l3 -24 -14 25
c-10 19 -21 25 -45 25 -37 0 -43 12 -9 18 31 5 61 -16 65 -44z m542 31 c20
-20 26 -50 14 -63 -13 -13 -25 5 -13 19 24 29 -31 60 -59 32 -7 -7 -12 -8 -12
-2 0 14 22 34 37 34 7 0 22 -9 33 -20z m55 1 c-3 -11 -1 -22 5 -26 5 -3 10
-11 10 -18 0 -7 -6 -5 -16 5 -14 14 -13 58 2 58 3 0 3 -9 -1 -19z m-4617 -9
c2 -7 -3 -12 -12 -12 -9 0 -16 7 -16 16 0 17 22 14 28 -4z m1447 8 c-3 -5 -11
-10 -16 -10 -6 0 -7 5 -4 10 3 6 11 10 16 10 6 0 7 -4 4 -10z m2452 -12 c1
-10 0 -18 -1 -18 -2 0 -10 8 -19 18 -15 16 -15 18 1 18 10 0 19 -8 19 -18z
m927 -11 c7 -6 6 -7 -4 -4 -8 2 -16 12 -17 23 -2 13 -1 15 4 4 3 -8 11 -19 17
-23z m-4124 -12 c0 -5 -5 -3 -10 5 -5 8 -10 20 -10 25 0 6 5 3 10 -5 5 -8 10
-19 10 -25z m3375 -3 c-6 -7 -35 18 -35 31 0 5 9 2 20 -8 11 -10 18 -20 15
-23z m107 13 c8 -19 8 -28 -2 -40 -11 -13 -10 -19 5 -35 10 -11 13 -20 8 -20
-6 0 -16 7 -23 15 -11 13 -10 20 1 41 12 23 11 27 -6 40 -22 16 -45 18 -45 4
0 -5 -4 -10 -10 -10 -5 0 -7 7 -4 15 10 26 63 19 76 -10z m-2702 -1 c0 -8 -5
-12 -10 -9 -6 4 -8 11 -5 16 9 14 15 11 15 -7z m3409 13 c-2 -1 -13 -9 -24
-17 -19 -14 -19 -14 -6 3 7 9 18 17 24 17 6 0 8 -1 6 -3z m-645 -36 c-2 -3
-12 3 -22 13 -16 17 -16 18 5 5 12 -7 20 -15 17 -18z m100 7 c9 -12 16 -29 15
-38 0 -9 -4 -7 -9 7 -11 26 -46 48 -55 33 -3 -5 -11 -10 -17 -10 -7 0 -6 6 2
15 18 22 46 18 64 -7z m375 -4 c23 -29 27 -44 11 -44 -5 0 -10 9 -10 20 0 25
-29 41 -52 29 -17 -9 -25 1 -11 14 14 15 43 6 62 -19z m-3144 -4 c3 -6 -1 -7
-9 -4 -18 7 -21 14 -7 14 6 0 13 -4 16 -10z m-100 -10 c-3 -5 -12 -10 -18 -10
-7 0 -6 4 3 10 19 12 23 12 15 0z m2305 -9 c5 -11 10 -26 10 -33 -1 -7 -8 -1
-16 15 -16 29 -41 35 -64 15 -12 -11 -12 -10 -1 5 18 23 58 22 71 -2z m178 7
c7 -7 11 -23 11 -37 -2 -24 -2 -24 -6 -3 -6 28 -40 49 -56 33 -17 -17 -31 -13
-17 4 15 18 51 20 68 3z m367 2 c3 -5 1 -10 -4 -10 -6 0 -11 5 -11 10 0 6 2
10 4 10 3 0 8 -4 11 -10z m85 -11 c0 -14 -17 -10 -23 5 -4 10 -1 13 9 9 7 -3
14 -9 14 -14z m100 6 c7 -9 10 -18 6 -22 -3 -3 -6 -2 -6 4 0 17 -31 25 -47 12
-15 -13 -28 -6 -18 10 9 16 51 13 65 -4z m265 -5 c10 -11 16 -20 13 -20 -3 0
-13 9 -23 20 -10 11 -16 20 -13 20 3 0 13 -9 23 -20z m-4125 -35 c-7 -8 -16
-15 -21 -15 -16 0 -10 32 9 46 14 10 18 10 20 -2 2 -8 -2 -21 -8 -29z m4185
35 c-3 -5 -11 -10 -16 -10 -6 0 -7 5 -4 10 3 6 11 10 16 10 6 0 7 -4 4 -10z
m-1695 -4 c0 -2 -7 -7 -16 -10 -8 -3 -12 -2 -9 4 6 10 25 14 25 6z m886 -24
c-4 -3 -14 2 -24 12 -16 18 -16 18 6 6 13 -6 21 -14 18 -18z m104 9 c5 -11 10
-26 9 -33 0 -7 -4 -3 -9 10 -12 29 -37 38 -61 23 -11 -6 -19 -7 -19 -3 0 29
65 31 80 3z m160 -11 c11 -11 20 -28 20 -37 0 -13 -4 -11 -13 7 -9 17 -21 25
-39 25 -21 -1 -24 2 -16 12 14 18 25 16 48 -7z m290 -12 c0 -6 -7 -5 -15 2 -8
7 -15 17 -15 22 0 6 7 5 15 -2 8 -7 15 -17 15 -22z m94 10 c18 -26 21 -48 5
-48 -5 0 -7 5 -4 11 4 5 -1 19 -10 29 -13 15 -22 17 -36 10 -26 -14 -33 -12
-19 5 18 22 46 18 64 -7z m-1604 -13 c-7 -9 -15 -13 -19 -10 -3 3 1 10 9 15
21 14 24 12 10 -5z m1460 6 c0 -6 -4 -13 -10 -16 -5 -3 -10 1 -10 9 0 9 5 16
10 16 6 0 10 -4 10 -9z m210 -23 c0 -6 -7 -5 -15 2 -8 7 -15 17 -15 22 0 6 7
5 15 -2 8 -7 15 -17 15 -22z m-390 7 c7 -9 8 -15 2 -15 -5 0 -12 7 -16 15 -3
8 -4 15 -2 15 2 0 9 -7 16 -15z m102 3 c9 -7 19 -24 22 -38 6 -23 6 -23 -10 4
-14 24 -20 27 -47 22 -30 -5 -31 -5 -13 9 24 18 28 18 48 3z m378 -3 c7 -9 10
-18 6 -22 -3 -3 -6 -2 -6 4 0 18 -30 24 -53 11 -20 -10 -21 -10 -8 5 17 21 45
22 61 2z m-1570 1 c0 -3 -4 -8 -10 -11 -5 -3 -10 -1 -10 4 0 6 5 11 10 11 6 0
10 -2 10 -4z m648 -8 c19 -19 14 -33 -6 -15 -22 20 -43 22 -62 5 -12 -11 -12
-10 -1 5 15 20 51 23 69 5z m-1998 -8 c0 -5 -5 -10 -11 -10 -5 0 -7 5 -4 10 3
6 8 10 11 10 2 0 4 -4 4 -10z m1460 -5 c-7 -9 -15 -13 -17 -11 -7 7 7 26 19
26 6 0 6 -6 -2 -15z m595 -5 c10 -11 13 -20 7 -20 -6 0 -16 9 -22 20 -6 11 -9
20 -7 20 2 0 12 -9 22 -20z m96 10 c10 -6 19 -16 19 -22 0 -7 -5 -6 -15 2 -8
7 -24 10 -36 7 -16 -4 -18 -3 -8 9 14 17 15 17 40 4z m-3801 -15 c0 -8 -4 -15
-10 -15 -5 0 -10 7 -10 15 0 8 5 15 10 15 6 0 10 -7 10 -15z m3625 5 c3 -5 1
-10 -4 -10 -6 0 -11 5 -11 10 0 6 2 10 4 10 3 0 8 -4 11 -10z m645 -22 c0 -6
-7 -5 -15 2 -8 7 -15 17 -15 22 0 6 7 5 15 -2 8 -7 15 -17 15 -22z m-1520 18
c0 -2 -7 -7 -16 -10 -8 -3 -12 -2 -9 4 6 10 25 14 25 6z m1230 -18 c11 -12 20
-26 20 -32 0 -6 -7 0 -16 13 -12 16 -23 22 -40 18 -25 -4 -33 8 -11 16 21 9
26 8 47 -15z m381 5 c13 -16 12 -17 -3 -5 -12 10 -22 11 -37 3 -27 -15 -31
-14 -25 4 8 20 48 19 65 -2z m-481 -8 c7 -8 8 -15 2 -15 -5 0 -15 7 -22 15 -7
8 -8 15 -2 15 5 0 15 -7 22 -15z m-980 -11 c0 -2 -9 -4 -21 -4 -11 0 -18 4
-14 10 5 8 35 3 35 -6z m1144 -24 c-6 -5 -24 21 -24 34 0 6 6 1 14 -10 8 -10
12 -21 10 -24z m386 8 c0 -6 -7 -5 -15 2 -8 7 -15 17 -15 22 0 6 7 5 15 -2 8
-7 15 -17 15 -22z m95 12 c3 -5 -4 -6 -15 -3 -11 3 -27 0 -35 -7 -21 -17 -30
-6 -11 13 15 15 51 13 61 -3z m-375 -5 c15 -18 -1 -20 -18 -3 -10 10 -17 10
-35 -1 -20 -13 -21 -13 -8 2 17 21 45 22 61 2z m-1085 -14 c-3 -6 -11 -11 -17
-11 -6 0 -6 6 2 15 14 17 26 13 15 -4z m686 -1 c10 -6 19 -16 19 -22 0 -7 -5
-6 -15 2 -8 7 -24 10 -36 7 -16 -4 -18 -3 -8 9 14 17 15 17 40 4z m-3717 -16
c3 -8 2 -12 -4 -9 -6 3 -10 10 -10 16 0 14 7 11 14 -7z m4101 6 c3 -5 1 -10
-4 -10 -6 0 -11 5 -11 10 0 6 2 10 4 10 3 0 8 -4 11 -10z m75 -5 c7 -9 8 -15
2 -15 -5 0 -12 7 -16 15 -3 8 -4 15 -2 15 2 0 9 -7 16 -15z m106 -18 c5 -8 2
-8 -9 2 -9 7 -26 11 -38 8 -16 -4 -18 -3 -9 9 13 15 42 5 56 -19z m-486 -9 c0
-6 -7 -5 -15 2 -8 7 -15 17 -15 22 0 6 7 5 15 -2 8 -7 15 -17 15 -22z m91 22
c10 -6 19 -16 19 -22 0 -9 -3 -9 -12 0 -7 7 -23 12 -37 12 -21 0 -23 2 -11 10
19 12 17 12 41 0z m-891 -9 c0 -5 -7 -12 -16 -15 -14 -5 -15 -4 -4 9 14 17 20
19 20 6z m1340 -16 c7 -9 8 -15 2 -15 -5 0 -12 7 -16 15 -3 8 -4 15 -2 15 2 0
9 -7 16 -15z m93 3 c15 -11 13 -13 -17 -14 -26 0 -31 2 -22 12 14 17 18 17 39
2z m-4496 -20 c-3 -8 -6 -5 -6 6 -1 11 2 17 5 13 3 -3 4 -12 1 -19z m235 -8
c5 -34 -7 -41 -17 -10 -5 17 0 40 9 40 2 0 6 -13 8 -30z m3794 3 c-7 -7 -26 7
-26 19 0 6 6 6 15 -2 9 -7 13 -15 11 -17z m102 9 c3 -11 0 -12 -17 -3 -12 7
-26 9 -31 6 -6 -3 -10 -1 -10 5 0 16 52 8 58 -8z m-3108 -33 c0 -18 -20 -26
-33 -13 -8 8 15 44 25 38 4 -3 8 -14 8 -25z m3164 15 c3 -8 2 -12 -4 -9 -6 3
-10 10 -10 16 0 14 7 11 14 -7z m96 -4 c8 -5 12 -11 9 -14 -3 -3 -14 1 -25 9
-21 16 -8 20 16 5z m-360 -38 l12 -27 -22 23 c-11 12 -31 22 -43 22 -16 0 -18
3 -8 9 21 14 47 2 61 -27z m-700 -2 c0 -5 -5 -10 -11 -10 -5 0 -7 5 -4 10 3 6
8 10 11 10 2 0 4 -4 4 -10z m756 -17 c-7 -7 -26 7 -26 19 0 6 6 6 15 -2 9 -7
13 -15 11 -17z m99 17 c7 -12 -12 -12 -40 0 -18 8 -17 9 7 9 15 1 30 -3 33 -9z
m-4145 -10 c13 -8 13 -10 -2 -10 -9 0 -20 5 -23 10 -8 13 5 13 25 0z m296 -17
c-10 -10 -19 5 -10 18 6 11 8 11 12 0 2 -7 1 -15 -2 -18z m3909 -3 c3 -5 1
-10 -4 -10 -6 0 -11 5 -11 10 0 6 2 10 4 10 3 0 8 -4 11 -10z m90 0 c3 -5 2
-10 -4 -10 -5 0 -13 5 -16 10 -3 6 -2 10 4 10 5 0 13 -4 16 -10z m-141 -69 c9
-11 8 -13 -4 -9 -8 2 -16 18 -17 34 -1 18 0 22 4 9 3 -11 10 -26 17 -34z m-63
22 c13 -15 12 -15 -9 -4 -13 7 -30 10 -38 7 -9 -3 -12 -1 -9 4 10 16 41 12 56
-7z m154 -23 c3 -6 -1 -7 -9 -4 -18 7 -21 14 -7 14 6 0 13 -4 16 -10z m-3728
-52 c-3 -8 -6 -5 -6 6 -1 11 2 17 5 13 3 -3 4 -12 1 -19z m142 9 c-2 -1 -13
-9 -24 -17 -19 -14 -19 -14 -6 3 7 9 18 17 24 17 6 0 8 -1 6 -3z m-92 -49 c-3
-7 -5 -2 -5 12 0 14 2 19 5 13 2 -7 2 -19 0 -25z m3613 22 c0 -5 -2 -10 -4
-10 -3 0 -8 5 -11 10 -3 6 -1 10 4 10 6 0 11 -4 11 -10z m-3843 -22 c-3 -8 -6
-5 -6 6 -1 11 2 17 5 13 3 -3 4 -12 1 -19z m198 3 c-3 -6 -11 -11 -17 -11 -6
0 -6 6 2 15 14 17 26 13 15 -4z m-55 -18 c-8 -3 -22 -11 -30 -17 -13 -10 -13
-9 -1 7 7 9 21 17 30 16 13 0 14 -1 1 -6z m102 -25 c-7 -7 -12 -8 -12 -2 0 14
12 26 19 19 2 -3 -1 -11 -7 -17z m-328 -17 c4 -5 -3 -7 -14 -4 -23 6 -26 13
-6 13 8 0 17 -4 20 -9z m270 -5 c-10 -8 -21 -12 -24 -10 -5 6 21 24 34 24 6 0
1 -6 -10 -14z m109 -1 c-3 -9 -8 -14 -10 -11 -3 3 -2 9 2 15 9 16 15 13 8 -4z
m2137 1 c0 -2 -8 -10 -17 -17 -16 -13 -17 -12 -4 4 13 16 21 21 21 13z m-2426
-75 c-5 -6 -74 51 -74 61 0 6 17 -5 38 -23 21 -19 37 -36 36 -38z m233 38 c-9
-6 -14 -16 -11 -22 5 -8 2 -7 -7 1 -12 11 -12 14 1 22 8 5 20 10 25 10 6 -1 2
-5 -8 -11z m-107 -9 c0 -5 -2 -10 -4 -10 -3 0 -8 5 -11 10 -3 6 -1 10 4 10 6
0 11 -4 11 -10z m2223 -5 c1 -5 -6 -11 -15 -13 -11 -2 -18 3 -18 13 0 17 30
18 33 0z m-183 -25 c18 -12 2 -12 -25 0 -13 6 -15 9 -5 9 8 0 22 -4 30 -9z
m-2840 -41 c31 -42 20 -45 -13 -4 -15 19 -23 35 -18 35 5 0 19 -14 31 -31z
m3160 -61 c0 -9 -61 1 -76 13 -6 5 -15 5 -19 1 -5 -4 -5 -1 -1 6 8 14 -10 17
-19 2 -3 -5 -27 -10 -53 -10 -52 0 -47 19 6 23 18 1 32 5 32 9 0 3 29 -3 65
-15 36 -12 65 -25 65 -29z m-1920 38 c0 -3 -4 -8 -10 -11 -5 -3 -10 -1 -10 4
0 6 5 11 10 11 6 0 10 -2 10 -4z m94 -41 c-14 -19 -31 -35 -36 -35 -6 0 -5 7
2 16 12 13 10 14 -16 2 -16 -7 -39 -18 -51 -26 -12 -8 -27 -11 -32 -8 -11 7
-81 -24 -81 -36 0 -4 -7 -8 -15 -8 -8 0 -15 5 -15 12 0 6 -9 3 -21 -8 -11 -10
-26 -19 -32 -19 -7 0 -27 -8 -45 -18 -29 -16 -34 -16 -48 -2 -14 13 -13 16 13
26 15 6 43 11 60 11 18 0 31 4 28 9 -7 10 40 23 54 15 5 -4 26 5 47 19 41 28
54 31 54 13 0 -9 3 -9 9 1 8 12 123 68 144 70 4 1 -4 -15 -19 -34z m1516 21
c0 -11 -19 -15 -25 -6 -3 5 1 10 9 10 9 0 16 -2 16 -4z m-2130 -22 c0 -8 -4
-12 -10 -9 -5 3 -10 10 -10 16 0 5 5 9 10 9 6 0 10 -7 10 -16z m-40 -4 c0 -5
-5 -10 -11 -10 -5 0 -7 5 -4 10 3 6 8 10 11 10 2 0 4 -4 4 -10z m90 -25 c0 -8
-4 -15 -10 -15 -5 0 -10 7 -10 15 0 8 5 15 10 15 6 0 10 -7 10 -15z m-516 -58
c-23 -42 -44 -67 -44 -53 0 9 63 106 67 103 2 -2 -8 -25 -23 -50z m476 49 c0
-3 -4 -8 -10 -11 -5 -3 -10 -1 -10 4 0 6 5 11 10 11 6 0 10 -2 10 -4z m90 -28
c0 -16 -3 -19 -11 -11 -6 6 -8 16 -5 22 11 17 16 13 16 -11z m2322 -81 c8 -16
7 -17 -9 -8 -39 21 -56 38 -49 50 9 14 40 -9 58 -42z m-1852 34 c0 -5 -9 -11
-20 -14 -11 -3 -20 -1 -20 3 0 5 8 11 18 13 9 3 18 5 20 6 1 0 2 -3 2 -8z
m-393 -21 c-27 -22 -37 -25 -37 -12 0 5 10 14 23 20 35 17 42 14 14 -8z m313
0 c0 -5 -7 -10 -15 -10 -8 0 -15 5 -15 10 0 6 7 10 15 10 8 0 15 -4 15 -10z
m1670 -10 c0 -5 -7 -10 -16 -10 -8 0 -12 5 -9 10 3 6 10 10 16 10 5 0 9 -4 9
-10z m-1600 -10 c0 -5 -8 -10 -17 -10 -15 0 -16 2 -3 10 19 12 20 12 20 0z
m-153 -6 c-3 -3 -12 -4 -19 -1 -8 3 -5 6 6 6 11 1 17 -2 13 -5z m-92 -24 c-3
-5 -13 -10 -21 -10 -8 0 -12 5 -9 10 3 6 13 10 21 10 8 0 12 -4 9 -10z m-304
-16 c-17 -13 -25 -14 -34 -5 -9 9 -8 11 4 6 10 -4 20 -2 24 4 3 6 11 11 18 11
6 0 1 -7 -12 -16z m214 -4 c-3 -5 -14 -10 -23 -10 -15 0 -15 2 -2 10 20 13 33
13 25 0z m155 0 c0 -5 -5 -10 -11 -10 -5 0 -7 5 -4 10 3 6 8 10 11 10 2 0 4
-4 4 -10z m1777 -46 c-3 -3 -12 -4 -19 -1 -8 3 -5 6 6 6 11 1 17 -2 13 -5z
m-2372 -24 c-16 -11 -34 -20 -40 -20 -12 0 46 38 60 39 6 1 -3 -8 -20 -19z
m-154 -43 c-6 -8 -7 -18 -3 -22 4 -5 2 -5 -5 -1 -14 8 -6 36 9 36 7 0 6 -5 -1
-13z m-81 -41 c0 -2 -7 -9 -15 -16 -13 -11 -14 -10 -9 4 5 14 24 23 24 12z
m120 0 c0 -2 -7 -7 -16 -10 -8 -3 -12 -2 -9 4 6 10 25 14 25 6z m-181 -59 c-2
-2 -22 -16 -44 -32 l-40 -28 39 36 c22 20 42 35 44 32 3 -3 3 -6 1 -8z m2156
-45 c-21 -5 -40 12 -30 28 5 8 13 6 27 -7 18 -16 19 -18 3 -21z m-45 8 c0 -5
-4 -10 -10 -10 -5 0 -10 5 -10 10 0 6 5 10 10 10 6 0 10 -4 10 -10z"/>
<path d="M4053 3210 c-13 -5 -23 -12 -23 -16 0 -3 6 -4 13 -1 7 3 19 -4 25
-14 14 -21 42 -26 42 -6 -1 12 -24 48 -31 46 -2 0 -14 -4 -26 -9z"/>
<path d="M1406 2947 c3 -10 9 -15 12 -12 3 3 0 11 -7 18 -10 9 -11 8 -5 -6z"/>
<path d="M4007 2943 c-4 -3 -7 -11 -7 -17 0 -6 5 -5 12 2 6 6 9 14 7 17 -3 3
-9 2 -12 -2z"/>
<path d="M1750 3016 c0 -9 5 -16 10 -16 6 0 10 4 10 9 0 6 -4 13 -10 16 -5 3
-10 -1 -10 -9z"/>
<path d="M4016 2717 c2 -7 13 -18 24 -25 17 -10 20 -10 20 4 0 8 -5 12 -10 9
-6 -3 -13 1 -16 9 -3 9 -10 16 -15 16 -4 0 -6 -6 -3 -13z"/>
<path d="M4102 2430 c0 -14 2 -19 5 -12 2 6 2 18 0 25 -3 6 -5 1 -5 -13z"/>
<path d="M4116 2335 c-3 -9 3 -19 15 -26 29 -15 36 -2 12 21 -17 16 -22 17
-27 5z"/>
<path d="M4170 2294 c0 -8 5 -12 10 -9 6 3 10 10 10 16 0 5 -4 9 -10 9 -5 0
-10 -7 -10 -16z"/>
<path d="M4096 2285 c-7 -20 28 -65 41 -51 4 4 2 10 -4 14 -7 4 -16 18 -21 31
-8 22 -9 22 -16 6z"/>
<path d="M4199 2268 c-1 -13 -1 -27 0 -32 1 -5 -7 -6 -19 -3 -11 3 -23 0 -27
-5 -3 -6 -1 -8 5 -4 5 3 12 0 15 -6 3 -10 7 -10 20 1 9 7 14 17 11 22 -3 5 0
9 5 9 14 0 14 27 1 35 -5 3 -11 -4 -11 -17z"/>
<path d="M4100 2199 c0 -5 5 -7 10 -4 6 3 10 8 10 11 0 2 -4 4 -10 4 -5 0 -10
-5 -10 -11z"/>
<path d="M950 2239 c-28 -23 -32 -31 -21 -38 18 -11 71 22 71 44 0 25 -15 24
-50 -6z"/>
<path d="M1746 2412 c-3 -5 1 -9 9 -9 8 0 15 4 15 9 0 4 -4 8 -9 8 -6 0 -12
-4 -15 -8z"/>
<path d="M2423 776 c-31 -20 -51 -46 -35 -46 9 1 75 60 70 64 -1 2 -18 -6 -35
-18z"/>
<path d="M2300 705 c-7 -8 -18 -15 -25 -15 -16 0 -38 -26 -33 -40 2 -6 17 2
33 18 17 16 37 31 45 34 9 3 10 7 3 11 -6 4 -16 0 -23 -8z"/>
<path d="M2640 589 c0 -5 5 -7 10 -4 6 3 10 8 10 11 0 2 -4 4 -10 4 -5 0 -10
-5 -10 -11z"/>
<path d="M2216 509 c-11 -10 -15 -19 -9 -19 5 0 18 9 28 20 23 26 6 25 -19 -1z"/>
<path d="M2100 300 c0 -5 4 -10 9 -10 6 0 13 5 16 10 3 6 -1 10 -9 10 -9 0
-16 -4 -16 -10z"/>
<path d="M2030 225 c-13 -14 -19 -25 -13 -25 6 0 18 11 27 25 9 14 15 25 13
25 -2 0 -14 -11 -27 -25z"/>
<path d="M3220 3990 c8 -5 22 -10 30 -10 13 0 13 1 0 10 -8 5 -22 10 -30 10
-13 0 -13 -1 0 -10z"/>
<path d="M3298 3993 c6 -2 18 -2 25 0 6 3 1 5 -13 5 -14 0 -19 -2 -12 -5z"/>
<path d="M3370 3991 c0 -5 16 -12 36 -16 21 -3 46 -12 58 -20 31 -19 87 -27
102 -14 17 14 44 5 44 -16 0 -21 13 -19 28 6 11 17 20 20 47 15 28 -6 36 -3
45 14 9 17 8 20 -10 20 -11 0 -20 4 -20 9 0 4 -74 9 -165 10 -95 1 -165 -2
-165 -8z"/>
<path d="M3805 3965 c-15 -18 -38 -36 -51 -39 -33 -9 -30 -22 7 -42 24 -12 37
-13 54 -6 20 9 22 8 18 -9 -4 -12 1 -21 13 -26 10 -3 43 -30 73 -60 59 -55 71
-62 71 -39 0 25 19 28 37 6 10 -12 26 -26 36 -31 14 -8 17 -6 17 10 0 14 -9
23 -25 27 -25 6 -30 19 -19 48 7 18 45 21 60 6 7 -7 23 1 49 27 l38 37 23 -28
24 -27 1 28 c0 15 3 46 5 67 4 31 2 37 -8 29 -7 -6 -37 -13 -65 -17 -56 -7
-53 -9 -53 41 0 4 10 8 22 8 12 0 23 5 25 12 3 8 -38 11 -160 11 l-164 0 -28
-33z m155 -33 c0 -10 -14 -31 -31 -48 -26 -23 -29 -25 -20 -7 14 28 14 33 -4
33 -19 0 -8 28 13 33 33 9 42 7 42 -11z m112 -40 c10 -37 -38 -70 -73 -51 -19
10 -19 10 1 40 24 33 65 40 72 11z"/>
<path d="M4560 3979 c0 -24 23 -21 28 4 2 10 -3 17 -12 17 -10 0 -16 -9 -16
-21z"/>
<path d="M4726 3984 c-9 -24 -7 -28 9 -14 17 14 20 30 6 30 -5 0 -12 -7 -15
-16z"/>
<path d="M6700 3960 c-6 -23 -20 -50 -31 -61 -27 -27 -15 -41 20 -23 32 16 54
60 49 95 -5 39 -26 33 -38 -11z"/>
<path d="M1174 3949 c3 -18 1 -38 -5 -45 -6 -7 -8 -18 -4 -25 5 -7 15 -2 31
17 28 35 29 46 6 67 -27 25 -35 21 -28 -14z"/>
<path d="M6540 3880 c0 -5 5 -10 10 -10 6 0 10 5 10 10 0 6 -4 10 -10 10 -5 0
-10 -4 -10 -10z"/>
<path d="M3350 3850 c6 -11 13 -20 16 -20 2 0 0 9 -6 20 -6 11 -13 20 -16 20
-2 0 0 -9 6 -20z"/>
<path d="M5195 3859 c-4 -6 -5 -12 -2 -15 2 -3 7 2 10 11 7 17 1 20 -8 4z"/>
<path d="M6617 3854 c-8 -9 21 -64 33 -64 14 0 12 44 -2 58 -13 13 -22 15 -31
6z"/>
<path d="M4631 3834 c0 -6 -11 -10 -23 -10 -19 1 -24 -5 -26 -31 -4 -38 9 -42
39 -14 13 12 19 27 16 43 -2 12 -5 18 -6 12z"/>
<path d="M7070 3796 c0 -36 17 -41 22 -6 3 20 0 30 -9 30 -7 0 -13 -11 -13
-24z"/>
<path d="M7027 3794 c-8 -8 1 -24 14 -24 5 0 9 7 9 15 0 15 -12 20 -23 9z"/>
<path d="M4352 3728 c-14 -14 -16 -48 -3 -48 37 0 53 28 28 49 -10 8 -17 7
-25 -1z"/>
<path d="M4963 3728 c-14 -7 -23 -20 -23 -35 0 -13 -8 -26 -17 -30 -28 -10
-47 -53 -24 -53 16 0 67 54 84 89 23 47 22 49 -20 29z"/>
<path d="M4116 3662 c-3 -6 -1 -14 5 -17 15 -10 25 3 12 16 -7 7 -13 7 -17 1z"/>
<path d="M6420 3611 c0 -5 5 -13 10 -16 6 -3 10 -2 10 4 0 5 -4 13 -10 16 -5
3 -10 2 -10 -4z"/>
<path d="M5201 3601 c-8 -5 -12 -18 -8 -30 3 -12 1 -38 -5 -57 -12 -46 -5 -52
37 -30 40 22 53 50 32 74 -7 9 -17 25 -20 35 -7 19 -15 21 -36 8z"/>
<path d="M3540 3542 c0 -13 -4 -20 -10 -17 -6 4 -10 -7 -10 -24 0 -24 4 -31
19 -31 11 0 23 5 26 10 5 8 11 7 21 -1 11 -9 14 -8 14 4 0 10 6 13 20 10 11
-3 20 -10 20 -15 0 -6 7 -5 15 2 8 7 15 27 15 44 0 28 -3 31 -31 30 -17 0 -34
-5 -37 -10 -10 -14 -36 -11 -49 6 -11 13 -12 12 -13 -8z"/>
<path d="M1670 3530 c0 -4 7 -13 15 -20 11 -9 15 -10 15 -1 0 8 8 10 20 6 14
-5 18 -3 15 8 -6 14 -65 20 -65 7z"/>
<path d="M3410 3531 c0 -5 5 -13 10 -16 6 -3 10 -2 10 4 0 5 -4 13 -10 16 -5
3 -10 2 -10 -4z"/>
<path d="M1592 3403 c2 -10 10 -18 18 -18 8 0 16 8 18 18 2 12 -3 17 -18 17
-15 0 -20 -5 -18 -17z"/>
<path d="M1320 3351 c0 -12 5 -21 10 -21 6 0 10 6 10 14 0 8 -4 18 -10 21 -5
3 -10 -3 -10 -14z"/>
<path d="M1455 3351 c-6 -11 9 -23 19 -14 9 9 7 23 -3 23 -6 0 -12 -4 -16 -9z"/>
<path d="M885 3330 c3 -5 8 -10 11 -10 2 0 4 5 4 10 0 6 -5 10 -11 10 -5 0 -7
-4 -4 -10z"/>
<path d="M2565 3320 c-4 -12 -5 -24 -2 -27 3 -2 8 5 12 17 4 12 5 24 2 27 -3
2 -8 -5 -12 -17z"/>
<path d="M3837 3333 c-3 -3 -3 -12 0 -21 4 -8 2 -13 -3 -10 -5 4 -18 0 -29 -8
-18 -14 -18 -14 3 -14 18 0 62 31 62 44 0 7 -28 15 -33 9z"/>
<path d="M2600 3300 c0 -5 5 -10 10 -10 6 0 10 5 10 10 0 6 -4 10 -10 10 -5 0
-10 -4 -10 -10z"/>
<path d="M930 3240 c0 -11 7 -20 15 -20 8 0 15 9 15 20 0 11 -7 20 -15 20 -8
0 -15 -9 -15 -20z"/>
<path d="M3184 3215 c-10 -8 -14 -15 -8 -15 6 0 17 7 24 15 16 19 9 19 -16 0z"/>
<path d="M3100 3185 l-25 -15 30 6 c17 4 37 10 45 15 12 7 11 8 -5 8 -11 0
-31 -6 -45 -14z"/>
<path d="M838 3153 c-16 -3 -28 -11 -28 -19 0 -8 -4 -14 -9 -14 -15 0 -22 -33
-9 -42 7 -4 30 -8 51 -8 31 0 40 4 44 20 11 41 24 19 17 -27 -6 -44 -6 -47 10
-34 9 8 30 14 46 13 17 0 31 6 34 15 7 18 -1 33 -18 33 -8 0 -19 7 -26 15 -7
8 -21 15 -31 15 -12 0 -16 5 -13 15 4 8 2 15 -4 15 -6 0 -16 2 -24 3 -7 2 -25
2 -40 0z"/>
<path d="M2542 3070 c0 -14 2 -19 5 -12 2 6 2 18 0 25 -3 6 -5 1 -5 -13z"/>
<path d="M315 3033 c-12 -32 49 -56 84 -34 18 11 5 31 -20 31 -11 0 -29 4 -39
10 -14 7 -20 6 -25 -7z"/>
<path d="M2605 3029 c-11 -17 1 -21 15 -4 8 9 8 15 2 15 -6 0 -14 -5 -17 -11z"/>
<path d="M2632 2975 c-11 -13 -9 -15 13 -15 16 0 25 5 23 12 -6 18 -21 19 -36
3z"/>
<path d="M2551 2868 c-7 -21 -9 -58 -5 -83 3 -25 2 -45 -3 -45 -12 0 -33 -81
-33 -125 0 -19 5 -35 10 -35 6 0 10 3 11 8 0 4 2 28 4 55 5 53 23 98 44 105
10 3 12 0 8 -11 -6 -16 13 -77 24 -77 4 0 3 17 -2 38 -19 76 -22 104 -11 111
11 6 16 39 14 77 -2 16 -8 22 -26 20 -19 -1 -27 -9 -35 -38z"/>
<path d="M2641 2811 c-19 -12 -3 -89 23 -106 27 -20 37 -19 29 3 -4 9 8 1 25
-18 l32 -34 0 56 0 56 -48 25 c-27 14 -54 22 -61 18z m74 -54 c25 -19 11 -41
-15 -24 -20 12 -28 37 -12 37 5 0 16 -6 27 -13z"/>
<path d="M378 2783 c-16 -8 -28 -19 -28 -24 0 -13 42 -1 52 15 7 10 11 27 6
25 -2 -1 -15 -8 -30 -16z"/>
<path d="M3276 2765 c-11 -8 -15 -15 -9 -15 19 0 43 12 43 21 0 13 -12 11 -34
-6z"/>
<path d="M2780 2721 c0 -5 5 -13 10 -16 6 -3 10 -2 10 4 0 5 -4 13 -10 16 -5
3 -10 2 -10 -4z"/>
<path d="M2630 2706 c0 -36 81 -139 97 -123 3 4 1 7 -5 7 -7 0 -12 7 -12 15 0
8 -8 23 -17 33 -10 9 -28 30 -40 46 -13 16 -23 26 -23 22z"/>
<path d="M2551 2654 c0 -11 3 -14 6 -6 3 7 2 16 -1 19 -3 4 -6 -2 -5 -13z"/>
<path d="M2626 2635 c4 -8 8 -15 10 -15 2 0 4 7 4 15 0 8 -4 15 -10 15 -5 0
-7 -7 -4 -15z"/>
<path d="M2798 2618 c2 -10 6 -18 7 -18 1 0 5 8 7 18 3 11 0 19 -7 19 -7 0
-10 -8 -7 -19z"/>
<path d="M3000 2580 c0 -5 5 -10 10 -10 6 0 10 5 10 10 0 6 -4 10 -10 10 -5 0
-10 -4 -10 -10z"/>
<path d="M3100 2580 c-9 -6 -10 -10 -3 -10 6 0 15 5 18 10 8 12 4 12 -15 0z"/>
<path d="M3046 2555 c-11 -8 -16 -15 -10 -15 5 0 18 7 28 15 11 8 16 15 10 15
-5 0 -18 -7 -28 -15z"/>
<path d="M546 2541 c-4 -7 -5 -15 -2 -18 9 -9 19 4 14 18 -4 11 -6 11 -12 0z"/>
<path d="M2960 2530 c0 -5 5 -10 10 -10 6 0 10 5 10 10 0 6 -4 10 -10 10 -5 0
-10 -4 -10 -10z"/>
<path d="M2694 2504 c3 -9 6 -20 6 -24 0 -14 50 -64 57 -57 3 4 0 14 -8 23
-13 16 -12 17 9 12 18 -5 22 -3 20 10 -2 9 -13 18 -25 20 -12 2 -27 10 -33 18
-17 19 -34 18 -26 -2z"/>
<path d="M2920 2484 c0 -8 5 -12 10 -9 6 3 10 10 10 16 0 5 -4 9 -10 9 -5 0
-10 -7 -10 -16z"/>
<path d="M2425 2400 c-10 -11 -26 -22 -36 -25 -19 -6 -27 -25 -10 -25 13 0 76
58 70 64 -3 4 -14 -3 -24 -14z"/>
<path d="M2475 2389 c-19 -77 -32 -155 -27 -163 7 -12 19 22 38 103 10 43 12
67 5 74 -7 7 -12 2 -16 -14z"/>
<path d="M3365 2381 c-3 -5 -1 -12 4 -15 5 -3 11 1 15 9 6 16 -9 21 -19 6z"/>
<path d="M3423 2383 c-7 -2 -13 -9 -13 -15 0 -7 5 -7 13 1 8 6 18 7 22 3 5 -4
5 -1 1 6 -4 6 -8 12 -9 11 -1 0 -8 -3 -14 -6z"/>
<path d="M3327 2373 c-4 -3 -7 -11 -7 -17 0 -6 5 -5 12 2 6 6 9 14 7 17 -3 3
-9 2 -12 -2z"/>
<path d="M3275 2360 c3 -5 8 -10 11 -10 2 0 4 5 4 10 0 6 -5 10 -11 10 -5 0
-7 -4 -4 -10z"/>
<path d="M3366 2342 c-3 -5 1 -18 9 -28 14 -18 14 -18 15 3 0 23 -15 39 -24
25z"/>
<path d="M3430 2320 c-12 -7 -10 -9 7 -7 12 0 19 5 17 9 -6 10 -6 10 -24 -2z"/>
<path d="M2540 2088 c-12 -22 -12 -22 6 -6 10 10 15 20 12 24 -4 3 -12 -5 -18
-18z"/>
<path d="M2495 1950 c-3 -5 -1 -10 4 -10 6 0 11 5 11 10 0 6 -2 10 -4 10 -3 0
-8 -4 -11 -10z"/>
<path d="M2460 1920 c-8 -5 -11 -12 -7 -16 4 -4 13 -2 19 4 15 15 7 24 -12 12z"/>
</g>
</svg>
