<?xml version="1.0" standalone="no"?>
<!DOCTYPE svg PUBLIC "-//W3C//DTD SVG 20010904//EN"
 "http://www.w3.org/TR/2001/REC-SVG-20010904/DTD/svg10.dtd">
<svg version="1.0" xmlns="http://www.w3.org/2000/svg"
 width="630.000000pt" height="630.000000pt" viewBox="0 0 630.000000 630.000000"
 preserveAspectRatio="xMidYMid meet">

<g transform="translate(0.000000,630.000000) scale(0.100000,-0.100000)"
fill="#E57C23" stroke="none">
<path d="M3335 4759 c-209 -22 -474 -79 -690 -149 -656 -214 -1155 -617 -1419
-1146 -165 -332 -220 -716 -151 -1056 8 -40 33 -130 56 -200 l42 -127 -47 -53
c-65 -73 -197 -189 -280 -246 l-68 -47 95 -3 c157 -5 374 38 518 101 l54 23
75 -47 c223 -138 334 -170 810 -233 276 -37 415 -46 688 -46 311 0 622 31 827
82 195 48 634 191 730 238 105 51 382 228 513 329 232 177 375 419 428 725 20
111 14 352 -11 466 -41 189 -115 359 -239 553 -92 143 -168 238 -274 339 -291
278 -680 448 -1134 497 -111 13 -405 12 -523 0z m605 -54 c172 -26 288 -59
416 -117 458 -208 780 -491 935 -822 60 -128 127 -342 151 -480 39 -231 13
-523 -61 -692 -55 -124 -195 -292 -326 -391 -128 -97 -393 -266 -496 -316
-196 -95 -545 -204 -824 -256 -381 -72 -893 -79 -1339 -20 -269 35 -511 78
-590 103 -64 20 -280 129 -309 156 -5 4 12 22 38 40 25 17 45 34 42 36 -5 5
-75 -18 -242 -81 -145 -55 -253 -85 -390 -108 -72 -13 -112 -12 -77 0 30 11
171 126 233 190 119 122 265 330 246 349 -5 5 -77 -77 -122 -141 l-20 -28 -38
98 c-56 146 -68 204 -74 376 -8 235 20 432 94 664 99 307 225 500 476 725 455
411 1033 665 1654 729 129 14 499 5 623 -14z"/>
<path d="M3615 4259 c-71 -11 -150 -25 -175 -32 -44 -12 -45 -14 -48 -57 -4
-54 17 -292 26 -302 4 -3 57 0 117 8 61 8 164 20 230 27 l120 12 -1 110 c0 69
-7 137 -18 183 l-18 72 -52 -1 c-28 0 -109 -10 -181 -20z m138 -99 c9 -36 16
-85 15 -110 l-3 -45 -153 -19 c-84 -10 -155 -16 -157 -14 -3 3 -8 45 -11 95
l-7 89 49 21 c27 12 74 26 104 32 30 6 64 13 75 15 58 12 69 4 88 -64z"/>
<path d="M3075 4233 c-178 -23 -333 -68 -510 -148 l-78 -36 6 -136 c12 -267
-32 -883 -64 -904 -13 -8 -90 -13 -105 -6 -4 1 -6 67 -5 147 2 171 -11 303
-46 460 -24 112 -94 340 -113 370 -8 12 -25 10 -122 -18 -62 -18 -149 -48
-192 -67 -79 -34 -259 -138 -311 -179 l-26 -21 25 -76 c108 -322 256 -1063
274 -1375 l7 -119 204 -8 c112 -5 207 -5 211 0 5 4 25 69 45 143 20 74 38 136
41 139 2 3 42 7 89 9 l85 5 0 -158 0 -158 93 6 c50 4 152 10 225 13 l132 7 15
51 c43 149 123 525 164 771 55 326 93 677 106 960 3 72 8 176 11 233 l5 102
-68 -1 c-37 -1 -81 -4 -98 -6z m1 -363 c-13 -474 -52 -814 -142 -1210 -33
-147 -97 -387 -105 -394 -2 -2 -68 -6 -146 -10 l-143 -7 0 106 0 105 -122 -1
c-68 0 -145 -4 -171 -7 l-49 -7 -3 -45 c-1 -25 -8 -71 -14 -102 l-12 -58 -48
0 c-26 0 -95 -3 -153 -6 l-105 -7 -7 69 c-21 212 -89 596 -156 883 -46 202
-105 419 -124 466 -14 33 -14 35 12 53 75 53 366 192 401 192 17 0 47 -68 95
-212 56 -169 82 -297 96 -472 13 -158 11 -206 -9 -222 -64 -50 154 -52 346 -4
185 47 208 87 28 49 -22 -4 -41 -6 -43 -4 -2 2 4 70 13 152 12 101 19 259 22
496 l5 348 67 30 c97 44 257 96 363 117 l93 19 8 -36 c5 -20 6 -146 3 -281z"/>
<path d="M4261 4072 c-57 -191 -201 -1286 -172 -1313 3 -3 44 -2 91 2 47 4
133 8 192 8 l106 1 11 33 c5 17 39 131 75 252 97 331 196 604 315 874 38 85
48 117 39 122 -18 12 -162 49 -248 66 -41 7 -145 16 -232 20 l-156 6 -21 -71z
m379 -7 c58 -9 110 -18 117 -20 8 -3 -5 -44 -38 -122 -117 -276 -240 -638
-313 -919 l-33 -129 -116 -3 -117 -3 0 28 c0 123 124 996 167 1172 6 24 6 24
117 18 61 -3 158 -13 216 -22z"/>
<path d="M3627 3800 c-77 -10 -162 -34 -204 -59 l-28 -18 -1 -179 c-2 -187
-27 -415 -79 -727 -27 -156 -94 -479 -120 -577 -10 -40 -11 -56 -3 -61 28 -17
296 -41 370 -33 l57 6 60 142 c80 189 113 291 155 481 77 353 109 623 104 875
l-3 155 -120 1 c-66 1 -151 -2 -188 -6z m183 -167 c0 -393 -86 -863 -225
-1233 l-43 -115 -98 1 c-55 0 -117 6 -140 12 l-41 12 24 107 c90 411 155 878
156 1125 l0 156 41 16 c69 25 167 41 284 45 l42 1 0 -127z"/>
<path d="M4162 2623 c-41 -4 -45 -7 -63 -51 -45 -103 -119 -366 -107 -378 2
-1 80 -8 173 -14 94 -6 183 -12 200 -13 30 -2 30 -2 41 73 15 98 38 369 32
375 -7 7 -226 14 -276 8z m165 -46 c5 -6 -10 -153 -23 -233 l-6 -32 -114 -1
c-135 -2 -130 -10 -85 139 39 127 39 128 64 134 28 6 156 0 164 -7z"/>
</g>
</svg>
