<?xml version="1.0" standalone="no"?>
<!DOCTYPE svg PUBLIC "-//W3C//DTD SVG 20010904//EN"
 "http://www.w3.org/TR/2001/REC-SVG-20010904/DTD/svg10.dtd">
<svg version="1.0" xmlns="http://www.w3.org/2000/svg"
 width="260.000000pt" height="260.000000pt" viewBox="0 0 260.000000 260.000000"
 preserveAspectRatio="xMidYMid meet">

<g transform="translate(0.000000,260.000000) scale(0.100000,-0.100000)"
fill="#262A56" stroke="none">
<path d="M1495 2551 c-5 -10 6 -69 21 -106 4 -11 -13 1 -41 28 -53 52 -57 53
-74 33 -9 -11 -9 -16 0 -22 8 -4 9 -3 5 4 -4 7 -2 12 4 12 6 0 10 -8 8 -17 -2
-10 -10 -17 -16 -15 -15 3 -16 -14 -2 -23 6 -3 10 -13 10 -22 0 -15 -2 -14
-18 0 -23 21 -58 22 -66 2 -3 -8 0 -14 6 -12 6 1 13 -4 16 -12 3 -8 0 -11 -7
-7 -32 20 10 -35 71 -92 37 -35 68 -71 68 -79 0 -8 4 -12 8 -9 5 3 8 -5 7 -17
-2 -20 -7 -22 -49 -19 -25 2 -46 -1 -46 -7 0 -5 -9 -12 -19 -16 -11 -3 -23
-16 -27 -27 -12 -38 15 -46 146 -41 105 3 120 2 120 -12 0 -29 30 -74 112
-167 45 -51 90 -93 99 -93 10 0 26 -8 37 -18 10 -9 27 -17 38 -17 10 0 30 -9
43 -19 l23 -18 -25 -49 c-37 -74 -48 -80 -100 -60 -56 21 -121 22 -113 1 3 -8
2 -14 -2 -13 -14 3 -77 -29 -92 -47 -11 -13 -15 -45 -17 -108 -1 -57 2 -85 8
-76 7 11 9 9 9 -7 0 -32 -10 -35 -41 -13 -15 11 -42 25 -59 30 -29 10 -30 14
-24 48 4 20 11 39 17 42 12 8 3 63 -24 146 -22 66 -40 89 -64 79 -8 -3 -31 4
-50 16 -43 25 -113 21 -154 -9 -32 -24 -71 -80 -71 -102 1 -9 7 -2 14 14 18
42 63 84 100 93 32 9 104 -2 120 -18 5 -5 -3 -6 -20 -1 -61 16 -139 -15 -172
-69 -14 -24 -14 -24 9 2 38 42 85 61 141 56 48 -5 88 -29 88 -54 0 -9 -13 -5
-37 12 -68 46 -146 22 -193 -61 -21 -35 -24 -37 -31 -20 -4 11 -8 16 -8 10 -1
-5 -6 -3 -12 5 -7 11 -8 5 -3 -22 8 -47 -2 -80 -17 -58 -9 12 -9 11 -4 -5 4
-11 11 -34 15 -50 11 -48 30 -77 46 -71 8 3 14 -1 14 -9 0 -8 9 -19 20 -25 16
-8 19 -17 14 -33 -9 -31 -13 -33 -27 -14 -13 17 -87 47 -118 47 -10 0 -25 -13
-34 -30 -17 -32 -20 -64 -6 -56 5 4 7 -3 4 -14 -5 -20 10 -26 60 -21 26 3 21
-13 -13 -37 -37 -28 -48 -28 -53 1 l-4 22 -2 -22 c0 -13 -8 -23 -16 -23 -9 0
-20 -11 -26 -24 -6 -13 -20 -27 -30 -29 -15 -4 -19 0 -19 20 0 34 -17 63 -38
63 -20 0 -212 167 -212 184 0 18 -63 76 -82 76 -9 0 -20 -4 -23 -10 -3 -5 -15
-10 -25 -10 -26 0 -74 -59 -60 -74 7 -9 5 -19 -5 -32 -20 -26 -19 -39 3 -23
15 13 16 12 4 -3 -8 -10 -19 -16 -24 -15 -6 1 -13 -4 -15 -10 -3 -7 0 -13 6
-13 6 0 8 -7 4 -16 -5 -13 -7 -13 -14 -2 -5 8 -7 1 -5 -19 6 -43 13 -53 39
-53 13 -1 56 -33 109 -83 71 -66 86 -86 82 -104 -7 -27 27 -63 61 -63 21 0 25
-5 26 -32 1 -22 3 -26 6 -13 7 30 23 43 23 18 0 -31 -21 -43 -63 -36 -33 5
-38 3 -46 -20 -6 -15 -21 -39 -35 -54 -67 -76 -134 -168 -129 -176 3 -6 2 -7
-3 -4 -5 3 -20 -2 -32 -12 -20 -15 -22 -20 -12 -45 9 -25 8 -27 -4 -17 -11 9
-15 8 -20 -5 -4 -9 -4 -19 -1 -22 3 -3 5 1 5 9 1 10 4 9 11 -4 8 -14 5 -24
-16 -49 -14 -17 -23 -33 -20 -36 3 -3 17 9 32 26 14 18 32 32 39 32 20 0 56
39 48 52 -4 6 -3 8 3 5 6 -4 14 0 17 9 9 23 8 26 -6 18 -7 -4 -4 2 6 15 20 22
20 22 40 2 19 -20 19 -20 -7 -58 -14 -21 -40 -56 -58 -78 -17 -22 -6 -13 25
20 31 33 58 68 61 78 4 9 13 17 21 17 7 0 19 9 26 20 12 19 38 26 51 14 10
-10 -11 -43 -67 -107 -40 -46 -55 -58 -73 -54 -23 4 -31 -7 -13 -18 23 -14 7
-22 -37 -20 -59 3 -73 -2 -66 -23 4 -8 -8 -1 -25 17 -30 32 -32 49 -9 79 5 7
7 15 4 18 -2 3 -24 -13 -47 -35 -23 -22 -49 -43 -58 -47 -12 -6 -7 -9 20 -12
38 -3 52 -19 37 -43 -5 -8 -9 -9 -9 -3 0 7 -8 15 -17 18 -15 6 -15 4 2 -14 14
-15 21 -17 32 -9 10 9 13 6 13 -15 0 -22 8 -30 54 -50 l54 -24 73 26 c41 14
76 29 79 33 3 5 12 4 20 -1 11 -7 12 -10 2 -10 -8 0 -12 -5 -10 -11 2 -6 8
-10 13 -9 6 0 12 -13 15 -30 5 -34 23 -42 28 -13 3 15 1 16 -7 3 -9 -12 -11
-10 -11 10 0 31 15 56 24 42 3 -6 14 -11 24 -11 27 0 116 -22 127 -32 5 -6 2
-9 -8 -9 -9 0 -17 -5 -17 -10 0 -6 3 -9 8 -9 20 3 21 -4 2 -40 -17 -34 -24
-40 -52 -40 -47 1 -86 18 -94 41 -4 12 -12 18 -23 15 -14 -3 -16 2 -13 30 5
38 -9 43 -42 16 -21 -18 -21 -18 -3 3 25 30 21 36 -15 29 -68 -15 -97 -32 -91
-54 3 -12 9 -21 13 -21 5 0 6 8 3 19 -3 13 2 20 20 25 14 3 33 9 44 12 11 4 5
-5 -14 -23 -18 -16 -33 -36 -33 -43 0 -7 9 -1 21 14 11 14 25 26 31 26 7 0 1
-11 -12 -25 -13 -14 -21 -28 -18 -31 4 -3 11 3 17 14 6 12 24 30 40 41 l28 20
-5 -27 c-3 -15 -10 -30 -16 -34 -6 -4 0 -11 14 -16 17 -7 30 -6 40 2 13 9 13
9 2 -5 -8 -11 -23 -15 -47 -12 -19 2 -35 1 -35 -2 0 -21 252 -117 296 -113 18
1 38 -3 46 -9 24 -20 98 -33 231 -40 97 -5 127 -3 127 6 0 7 7 20 16 29 15 15
16 14 10 -6 -7 -20 -4 -22 27 -22 45 0 178 25 239 46 32 10 48 21 48 32 0 14
2 14 9 3 8 -12 14 -12 40 -1 17 7 29 16 26 20 -3 4 15 11 40 15 36 5 48 12 60
35 8 16 15 36 15 44 0 16 18 31 26 23 3 -3 -2 -19 -11 -37 -9 -18 -14 -34 -11
-37 5 -5 56 101 56 115 0 3 -6 -3 -14 -14 -8 -10 -17 -16 -21 -12 -8 8 26 49
36 43 4 -3 10 12 14 33 3 20 9 48 12 61 4 18 3 22 -7 16 -9 -6 -11 -4 -5 6 10
16 15 143 6 156 -3 4 -20 20 -38 34 -39 33 -31 48 33 60 27 5 55 16 63 24 13
13 12 14 -10 10 -76 -16 -99 -17 -99 -6 0 6 12 11 28 11 52 0 57 13 27 64 -30
50 -36 56 -28 26 4 -16 0 -20 -19 -20 -21 0 -24 4 -21 24 3 13 0 27 -6 30 -6
4 -11 12 -11 18 0 7 4 7 13 -1 8 -6 17 -8 20 -4 4 3 7 1 7 -6 0 -7 5 -9 10 -6
6 4 25 -8 42 -27 17 -18 28 -26 23 -18 -15 27 -48 60 -61 60 -6 0 -14 7 -18
15 -3 8 -12 12 -20 9 -16 -6 -21 0 -30 41 l-6 30 15 -27 c17 -30 31 -38 21
-12 -3 8 1 26 10 39 9 13 12 30 8 36 -4 8 -3 9 4 5 8 -5 12 5 12 33 0 22 -5
42 -12 45 -9 3 -8 8 5 16 9 6 17 19 17 29 0 12 10 21 25 25 20 5 25 13 25 39
0 18 6 41 14 52 35 52 117 223 122 256 5 29 24 57 79 116 39 43 80 93 89 111
9 17 23 32 31 32 8 0 15 5 15 11 0 5 -4 7 -10 4 -7 -4 -7 3 0 20 11 30 7 42
-27 68 -12 10 -31 37 -41 60 -10 23 -27 49 -37 57 -28 24 -86 40 -144 40 -49
0 -52 -1 -40 -17 13 -16 12 -17 -3 -4 -10 7 -16 17 -13 21 8 12 -246 221 -275
227 -22 4 -29 15 -48 76 -12 40 -24 101 -28 137 -10 112 -68 138 -68 30 0 -48
0 -49 -18 -30 -10 10 -18 25 -18 32 0 7 -14 34 -30 61 -29 45 -60 61 -75 38z
m242 -408 c5 -14 -24 -43 -43 -43 -12 0 -12 4 1 31 16 29 35 35 42 12z m168
-46 c37 -26 61 -51 63 -65 3 -20 1 -19 -28 9 -17 18 -37 29 -45 25 -17 -6 -58
41 -48 57 4 6 0 8 -10 4 -10 -3 -17 -2 -17 3 0 19 26 9 85 -33z m-152 18 c-3
-9 -8 -14 -10 -11 -3 3 -2 9 2 15 9 16 15 13 8 -4z m-103 -68 c0 -5 -4 -5 -10
-2 -5 3 -10 14 -10 23 0 15 2 15 10 2 5 -8 10 -19 10 -23z m289 -24 c11 -16
29 -37 38 -48 58 -65 64 -73 54 -79 -6 -4 -18 8 -28 28 -9 20 -20 36 -24 36
-3 0 -23 20 -43 45 -21 25 -33 45 -27 45 5 0 19 -12 30 -27z m-159 -27 c-4 -4
-16 -4 -26 2 -16 9 -14 10 8 9 15 -1 23 -6 18 -11z m53 -3 c-5 -12 -2 -15 10
-10 9 3 19 2 21 -2 3 -4 -7 -7 -22 -6 -45 3 -48 5 -28 20 25 19 27 19 19 -2z
m-11 -42 c-1 -7 2 -10 8 -6 5 3 19 8 30 10 18 3 19 1 9 -17 -8 -16 -8 -19 1
-13 9 5 10 1 5 -15 -5 -16 -4 -21 6 -18 8 3 13 12 11 21 -2 14 2 15 37 8 2 -1
-3 -9 -10 -18 -8 -9 -9 -14 -4 -11 6 4 11 -2 11 -12 0 -10 -5 -16 -11 -14 -5
3 -3 -1 6 -8 13 -11 14 -16 4 -25 -10 -10 -15 -8 -21 5 -4 9 -6 20 -6 25 1 4
-2 6 -7 5 -5 -2 -31 20 -58 48 -38 39 -44 50 -28 48 11 -1 19 -7 17 -13z m360
7 c22 -6 44 -20 50 -31 9 -17 8 -19 -8 -12 -11 4 -39 11 -64 14 -49 7 -70 17
-70 32 0 13 45 11 92 -3z m76 -43 c-3 -3 -9 2 -12 12 -6 14 -5 15 5 6 7 -7 10
-15 7 -18z m-273 -65 c-16 -16 -32 -30 -37 -30 -8 0 53 59 61 60 3 0 -8 -13
-24 -30z m-501 -167 c3 -7 3 -20 -1 -29 -5 -14 -8 -12 -19 7 -17 31 -17 36 1
36 8 0 16 -6 19 -14z m-126 -90 c6 -15 12 -33 12 -39 0 -17 -43 -30 -48 -15
-2 6 -10 11 -18 11 -19 0 -18 35 2 54 22 23 37 20 52 -11z m342 2 c0 -2 -10
-9 -22 -15 -22 -11 -22 -10 -4 4 21 17 26 19 26 11z m160 -53 c0 -7 -10 -26
-21 -41 -13 -17 -18 -34 -14 -42 6 -8 4 -10 -5 -4 -9 6 -12 4 -8 -6 4 -10 -2
-14 -18 -14 -29 0 -31 11 -4 25 11 6 20 15 20 21 0 6 -5 7 -12 3 -7 -4 -8 -3
-4 5 4 6 12 8 18 5 8 -5 9 -1 5 10 -5 11 -3 15 5 10 8 -5 9 -2 4 11 -5 15 -4
16 9 5 13 -11 14 -8 9 21 -4 26 -3 30 5 19 6 -8 11 -21 11 -28z m-383 -8 c-7
-43 -39 -81 -84 -100 -59 -26 -111 -16 -160 29 -34 31 -16 40 22 11 75 -57
165 -32 195 54 18 52 35 55 27 6z m-802 -108 c20 -16 35 -38 39 -58 4 -20 27
-54 59 -88 28 -30 42 -46 30 -36 -12 10 -27 15 -33 11 -5 -3 -27 7 -48 23 -20
17 -56 35 -78 41 -47 13 -84 45 -62 55 7 3 3 3 -9 1 -12 -3 -24 -2 -27 3 -3 6
3 12 13 15 20 5 67 -34 55 -45 -8 -9 54 -21 66 -13 17 11 11 58 -12 82 -22 24
-45 32 -32 11 4 -7 3 -8 -5 -4 -11 7 -7 26 6 26 3 0 21 -11 38 -24z m1198 -34
c20 -12 27 -24 27 -48 0 -19 -6 -34 -15 -38 -11 -4 -15 1 -15 17 0 36 -16 51
-70 63 -44 10 -52 9 -60 -5 -13 -22 -12 -4 1 20 9 17 17 19 57 13 26 -3 59
-14 75 -22z m-705 -67 c25 -10 50 -32 70 -60 32 -45 25 -58 -14 -30 -12 8 -24
11 -28 7 -4 -3 -4 1 -1 10 4 9 2 19 -4 23 -6 3 -11 1 -11 -4 0 -6 -13 -11 -28
-11 -18 0 -29 5 -29 14 0 11 5 12 18 5 22 -11 29 -11 29 -1 0 4 -17 14 -37 21
-33 12 -38 12 -50 -5 -16 -22 -17 -13 -1 21 13 29 32 31 86 10z m126 -16 c-4
-8 1 -9 17 -4 l24 6 -25 -20 c-21 -17 -26 -17 -33 -5 -9 16 -1 34 14 34 6 0 7
-5 3 -11z m-694 -90 c-7 -11 -14 -18 -17 -15 -3 3 0 12 7 21 18 21 23 19 10
-6z m1155 11 c3 -5 1 -10 -4 -10 -6 0 -11 5 -11 10 0 6 2 10 4 10 3 0 8 -4 11
-10z m-1107 -20 c-7 -11 -16 -20 -20 -20 -5 0 -3 9 4 20 7 11 16 20 20 20 5 0
3 -9 -4 -20z m247 -10 c12 -19 -12 -10 -31 11 -19 22 -19 22 3 10 12 -6 25
-16 28 -21z m515 20 c8 -5 11 -10 5 -10 -5 0 -17 5 -25 10 -8 5 -10 10 -5 10
6 0 17 -5 25 -10z m-814 -42 c21 -7 34 -19 34 -30 0 -26 -16 -22 -57 15 -26
24 -34 38 -27 48 7 12 9 11 12 -3 2 -9 19 -23 38 -30z m257 9 c-3 -4 -6 -7 -7
-5 -1 2 -8 12 -16 22 -14 18 -14 18 7 6 12 -8 19 -18 16 -23z m107 -40 c0 -18
-2 -19 -10 -7 -13 20 -13 43 0 35 6 -3 10 -16 10 -28z m261 6 c-12 -20 -14
-14 -5 12 4 9 9 14 11 11 3 -2 0 -13 -6 -23z m532 10 c-7 -2 -19 -2 -25 0 -7
3 -2 5 12 5 14 0 19 -2 13 -5z m-653 -23 c0 -11 -2 -20 -4 -20 -2 0 -6 9 -9
20 -3 11 -1 20 4 20 5 0 9 -9 9 -20z m583 13 c-7 -2 -21 -2 -30 0 -10 3 -4 5
12 5 17 0 24 -2 18 -5z m324 -15 c-3 -8 -6 -5 -6 6 -1 11 2 17 5 13 3 -3 4
-12 1 -19z m-1175 -18 c-12 -12 -22 -18 -22 -14 0 12 33 45 38 39 3 -3 -4 -14
-16 -25z m218 -1 c0 -10 -4 -19 -9 -19 -10 0 -21 36 -14 44 10 10 23 -5 23
-25z m563 24 c-7 -2 -19 -2 -25 0 -7 3 -2 5 12 5 14 0 19 -2 13 -5z m-150 -20
c-7 -2 -19 -2 -25 0 -7 3 -2 5 12 5 14 0 19 -2 13 -5z m-125 -95 c2 -39 6 -76
9 -81 3 -6 1 -7 -5 -3 -7 4 -12 13 -12 21 0 8 -5 17 -12 21 -8 5 -9 1 -5 -12
7 -18 6 -18 -6 -2 -8 10 -17 15 -20 11 -4 -3 -7 -2 -7 4 0 6 7 16 15 23 8 7
12 16 9 21 -4 7 22 69 29 69 2 0 4 -32 5 -72z m-328 47 c-7 -8 -19 -15 -26
-15 -8 0 -11 6 -8 15 4 8 15 15 26 15 17 0 18 -3 8 -15z m40 11 c0 -2 -8 -10
-17 -17 -16 -13 -17 -12 -4 4 13 16 21 21 21 13z m35 -110 c6 -48 6 -49 -18
-44 -15 3 -24 0 -24 -9 0 -7 8 -13 18 -13 15 0 17 -4 10 -22 -4 -12 -13 -24
-18 -25 -13 -5 -33 49 -33 88 0 15 -4 30 -10 34 -5 3 -7 12 -3 20 3 9 -1 15
-11 15 -9 0 -16 -5 -16 -11 0 -5 -4 -7 -10 -4 -6 4 -10 -14 -11 -47 l-1 -53
-10 40 c-22 96 -22 95 3 96 13 1 39 3 57 5 22 1 32 -2 32 -12 0 -8 5 -14 11
-14 5 0 7 -5 3 -12 -5 -7 -3 -8 5 -3 9 5 10 10 2 18 -6 6 -11 20 -11 32 1 35
26 -23 35 -79z m12 62 c-3 -8 -6 -5 -6 6 -1 11 2 17 5 13 3 -3 4 -12 1 -19z
m564 -14 c17 -8 36 -29 44 -46 29 -70 -40 -166 -109 -153 -35 6 -53 20 -78 60
-14 24 -18 26 -18 10 1 -23 27 -57 57 -74 64 -34 148 8 159 80 6 36 24 65 24
39 0 -7 7 -5 16 4 8 9 29 16 45 16 26 0 29 -3 29 -32 0 -18 4 -28 8 -21 4 6 7
-14 7 -45 l0 -57 -50 -7 c-178 -27 -199 -27 -241 -9 -44 20 -79 67 -86 116 -3
17 -3 24 -1 18 6 -18 23 -16 23 3 0 9 7 31 16 50 28 59 94 80 155 48z m-554
-41 c-3 -10 -5 -4 -5 12 0 17 2 24 5 18 2 -7 2 -21 0 -30z m-213 2 c-4 -8 -10
-12 -15 -9 -11 6 -2 24 11 24 5 0 7 -7 4 -15z m1016 -22 c0 -22 -2 -25 -10
-13 -13 20 -13 40 0 40 6 0 10 -12 10 -27z m-609 -22 c6 10 9 8 9 -9 0 -13 4
-20 10 -17 15 10 24 -25 10 -38 -10 -10 -11 -7 -5 13 l6 25 -19 -24 c-15 -19
-20 -21 -25 -8 -3 8 -1 19 5 25 6 6 6 12 -1 16 -6 4 -11 13 -10 19 0 8 3 7 6
-2 5 -11 7 -11 14 0z m92 -207 c9 -17 23 -34 32 -38 13 -5 14 -10 4 -27 -6
-12 -7 -19 -1 -15 5 3 13 -1 16 -10 4 -11 0 -14 -17 -12 -29 4 -39 19 -24 37
8 10 8 12 1 8 -11 -6 -44 49 -59 98 -6 19 -7 19 -16 2 -6 -9 -15 -15 -20 -11
-6 4 -6 11 2 20 7 8 7 14 1 14 -5 0 -12 9 -15 19 -3 13 3 22 18 29 20 9 21 8
17 -14 -2 -14 0 -24 7 -24 6 0 11 15 12 33 1 26 3 21 13 -23 7 -30 20 -69 29
-86z m-613 112 c0 -2 -3 -11 -6 -20 -9 -24 -33 -20 -27 4 4 16 33 30 33 16z
m121 -23 c13 -16 12 -17 -3 -4 -10 7 -18 15 -18 17 0 8 8 3 21 -13z m972 -46
c-13 -8 -255 -48 -377 -62 -41 -5 -56 -3 -52 4 4 6 22 11 39 12 18 0 111 12
207 27 l175 28 4 29 4 30 7 -30 c4 -20 1 -33 -7 -38z m-583 12 c0 -6 -4 -7
-10 -4 -5 3 -10 11 -10 16 0 6 5 7 10 4 6 -3 10 -11 10 -16z m-22 -7 c6 -18
-15 -14 -22 4 -4 10 -1 14 6 12 6 -2 14 -10 16 -16z m244 -24 c-31 -4 -67 -10
-79 -13 -17 -4 -23 -1 -23 10 0 9 5 13 10 10 13 -8 90 4 89 13 -3 19 4 20 31
4 l30 -17 -58 -7z m-286 13 c-4 -5 0 -12 6 -14 7 -3 2 -6 -11 -6 -20 -1 -21 1
-11 14 14 16 25 21 16 6z m-508 -26 c-6 -14 -17 -24 -24 -21 -7 3 -15 0 -17
-7 -3 -7 -4 -2 -4 11 1 13 6 21 13 18 7 -3 18 2 24 10 18 21 21 17 8 -11z
m316 9 c9 -24 7 -28 -9 -14 -17 14 -20 30 -6 30 5 0 12 -7 15 -16z m-51 0 c10
-10 -11 -42 -34 -55 -19 -10 -20 -9 -14 13 13 39 33 57 48 42z m331 -29 c-7
-18 37 -79 69 -96 11 -7 46 -11 76 -10 78 2 52 -21 -29 -27 -60 -4 -61 -4 -99
36 -43 45 -60 90 -39 103 20 13 28 11 22 -6z m40 -11 c3 -8 2 -12 -4 -9 -6 3
-10 10 -10 16 0 14 7 11 14 -7z m563 10 c-7 -8 -450 -74 -456 -68 -8 7 7 15
36 19 30 5 309 42 358 48 53 7 68 7 62 1z m-1267 -17 c0 -2 -10 -12 -22 -23
l-23 -19 19 23 c18 21 26 27 26 19z m17 -29 c-3 -8 -6 -5 -6 6 -1 11 2 17 5
13 3 -3 4 -12 1 -19z m48 -40 c1 -13 -2 -15 -16 -8 -17 10 -31 0 -42 -30 -4
-11 -6 -9 -6 6 -1 30 -20 45 -42 34 -10 -6 -20 -6 -23 -1 -9 13 48 21 57 8 5
-8 14 -4 30 14 19 22 23 24 31 10 6 -9 11 -24 11 -33z m1165 7 c0 -6 -8 -11
-17 -12 -10 0 -71 -9 -136 -18 -110 -17 -119 -17 -135 -2 -15 16 -13 17 28 17
68 1 220 26 233 39 11 11 27 -2 27 -24z m-1080 1 c0 -2 -8 -10 -17 -17 -16
-13 -17 -12 -4 4 13 16 21 21 21 13z m220 -28 c0 -33 44 -149 65 -172 25 -27
69 -35 79 -13 4 6 4 -3 1 -21 -12 -84 39 -168 97 -160 15 3 25 1 23 -3 -3 -4
12 -22 33 -41 34 -30 37 -38 29 -61 l-9 -27 -20 26 c-18 22 -26 25 -55 19 -26
-5 -41 -1 -66 17 -26 19 -45 23 -103 23 -68 -1 -72 1 -87 28 -19 32 -138 93
-163 83 -8 -3 -13 -2 -9 3 3 5 -10 15 -29 21 l-35 11 37 50 c20 28 58 85 84
127 54 87 128 139 128 90z m-330 -8 c0 -5 -5 -10 -11 -10 -5 0 -7 5 -4 10 3 6
8 10 11 10 2 0 4 -4 4 -10z m-134 -49 c-10 -16 -33 -13 -40 5 -3 8 -2 12 3 9
5 -3 13 0 16 6 5 7 11 7 17 1 6 -6 7 -15 4 -21z m245 -18 c-17 -28 -38 -53
-45 -53 -4 0 5 16 20 35 28 37 41 47 25 18z m416 -75 c-3 -7 -5 -2 -5 12 0 14
2 19 5 13 2 -7 2 -19 0 -25z m-542 -135 c15 -9 10 -13 -36 -28 -30 -10 -58
-21 -63 -26 -5 -4 -16 -3 -26 3 -16 10 -16 13 7 39 20 22 32 27 62 25 21 -2
46 -8 56 -13z m761 -86 c-7 -120 -6 -116 -21 -72 -7 22 -13 32 -14 23 -1 -10
-6 -18 -12 -18 -20 0 -49 21 -49 35 0 8 -8 15 -18 15 -15 0 -18 6 -14 30 5 32
22 32 22 -1 0 -12 7 -19 20 -19 15 0 20 7 20 26 0 35 23 26 31 -12 6 -27 7
-27 8 -4 2 40 13 70 22 64 5 -3 7 -33 5 -67z m-426 -71 c0 -2 -7 -6 -15 -10
-8 -3 -15 -1 -15 4 0 6 7 10 15 10 8 0 15 -2 15 -4z m360 -72 c0 -8 -4 -14
-10 -14 -5 0 -10 9 -10 21 0 11 5 17 10 14 6 -3 10 -13 10 -21z m43 6 c3 -12
-3 -30 -14 -43 -18 -21 -18 -21 -19 -2 0 29 11 65 20 65 4 0 10 -9 13 -20z"/>
<path d="M1321 1034 c0 -11 3 -14 6 -6 3 7 2 16 -1 19 -3 4 -6 -2 -5 -13z"/>
<path d="M1025 1000 c3 -5 8 -10 11 -10 2 0 4 5 4 10 0 6 -5 10 -11 10 -5 0
-7 -4 -4 -10z"/>
<path d="M1620 961 c0 -19 17 -38 25 -29 7 7 -7 48 -16 48 -5 0 -9 -9 -9 -19z"/>
<path d="M1560 945 c0 -14 5 -25 10 -25 6 0 10 11 10 25 0 14 -4 25 -10 25 -5
0 -10 -11 -10 -25z"/>
<path d="M1728 850 c-19 -33 -18 -34 34 -20 29 8 35 14 31 30 -8 31 -45 25
-65 -10z"/>
<path d="M1130 1605 c-7 -9 -9 -23 -4 -37 4 -13 7 -27 5 -33 -1 -5 3 -5 9 1 9
9 9 17 0 35 -11 19 -10 24 6 36 10 7 13 13 7 13 -6 0 -16 -7 -23 -15z"/>
<path d="M2041 730 c14 -31 19 -36 19 -24 0 6 -7 19 -16 30 -14 18 -14 18 -3
-6z"/>
<path d="M820 269 c0 -5 5 -7 10 -4 6 3 10 8 10 11 0 2 -4 4 -10 4 -5 0 -10
-5 -10 -11z"/>
<path d="M810 219 c-14 -33 -9 -43 28 -54 19 -5 25 -1 37 27 12 29 12 34 -2
46 -28 20 -50 14 -63 -19z m58 -15 c-11 -24 -42 -32 -53 -14 -12 20 13 48 39
43 22 -5 23 -8 14 -29z"/>
</g>
</svg>
